<svg width="287" height="279" viewBox="0 0 287 279" fill="none" xmlns="http://www.w3.org/2000/svg">
<g filter="url(#filter0_d_4517_1150)">
<path d="M115.912 8.75348C97.9762 11.601 80.8202 18.1155 65.515 27.8902C50.2098 37.6649 37.0841 50.4899 26.9572 65.5644C16.8304 80.6389 9.91998 97.6392 6.65743 115.504C3.39488 133.369 3.85026 151.714 7.99513 169.395C15.0659 200.682 33.6023 228.184 59.9493 246.478C77.5339 258.739 97.8319 266.547 119.1 269.232C140.367 271.917 161.969 269.4 182.049 261.895C184.473 260.783 186.641 259.185 188.42 257.199C190.199 255.212 191.55 252.881 192.388 250.35C193.227 247.82 193.536 245.143 193.296 242.488C193.055 239.832 192.271 237.255 190.991 234.916L135.799 139.333V26.3285C135.821 23.8123 135.303 21.3208 134.278 19.0224C133.254 16.7241 131.749 14.6724 129.863 13.0061C127.978 11.3399 125.756 10.0979 123.349 9.36426C120.943 8.63059 118.406 8.4223 115.912 8.75348Z" fill="#FE8503"/>
</g>
<g filter="url(#filter1_d_4517_1150)">
<path d="M168.39 140.587C166.614 140.621 164.876 141.106 163.339 141.996C161.802 142.886 160.516 144.151 159.603 145.674C158.696 147.245 158.219 149.026 158.219 150.839C158.219 152.652 158.696 154.433 159.603 156.004L207.086 238.174C208.311 240.364 209.995 242.263 212.023 243.742C214.05 245.221 216.373 246.244 218.833 246.742C221.292 247.239 223.83 247.2 226.273 246.626C228.716 246.052 231.005 244.957 232.986 243.416C246.809 232.446 258.286 218.81 266.734 203.317C275.183 187.823 280.43 170.79 282.165 153.229C282.298 151.629 282.092 150.02 281.561 148.506C281.03 146.992 280.185 145.607 279.082 144.441C277.994 143.281 276.681 142.355 275.223 141.719C273.765 141.083 272.193 140.75 270.603 140.741L168.39 140.587Z" fill="#0CA5B3"/>
</g>
<g filter="url(#filter2_d_4517_1150)">
<path d="M152.34 0.162109C151.482 0.162109 150.658 0.5032 150.051 1.11035C149.444 1.7175 149.103 2.54097 149.103 3.39961V121.645C149.082 122.987 149.331 124.32 149.835 125.564C150.339 126.808 151.088 127.938 152.037 128.887C152.986 129.836 154.116 130.584 155.359 131.088C156.603 131.592 157.936 131.841 159.278 131.82H265.499C267.535 131.845 269.553 131.431 271.415 130.607C273.277 129.782 274.94 128.566 276.29 127.041C277.673 125.537 278.719 123.755 279.357 121.814C279.995 119.873 280.211 117.818 279.99 115.787C276.086 84.4215 261.054 55.499 237.628 34.2797C214.202 13.0605 183.938 0.953962 152.34 0.162109Z" fill="#EF0549"/>
</g>
<path d="M248.404 140.587C248.387 158.7 244.642 176.617 237.402 193.22C230.161 209.824 219.579 224.759 206.316 237.095L209.091 241.566C210.08 243.317 211.425 244.841 213.04 246.038C214.656 247.235 216.505 248.079 218.467 248.515C220.43 248.951 222.462 248.97 224.433 248.569C226.403 248.169 228.267 247.359 229.904 246.191C244.452 235.167 256.573 221.265 265.512 205.35C274.451 189.436 280.015 171.851 281.858 153.691C281.991 152.092 281.785 150.483 281.254 148.968C280.723 147.454 279.878 146.069 278.775 144.904C277.687 143.744 276.374 142.817 274.916 142.181C273.458 141.545 271.886 141.213 270.296 141.204L248.404 140.587Z" fill="#086A73"/>
<path d="M135.799 21.2408C135.858 19.2984 135.479 17.3676 134.69 15.5916C133.901 13.8156 132.722 12.2399 131.242 10.9813C129.761 9.72274 128.016 8.81352 126.136 8.32109C124.256 7.82866 122.29 7.76564 120.382 8.13669C113.83 8.92199 107.339 10.1583 100.957 11.8367V99.7117C101.265 125.592 108.333 150.943 121.461 173.249L159.078 238.308C160.265 240.18 161.035 242.287 161.334 244.484C161.633 246.682 161.454 248.918 160.81 251.039C160.166 253.161 159.072 255.119 157.603 256.78C156.133 258.441 154.322 259.765 152.295 260.662C141.548 265.18 130.245 268.239 118.686 269.758C124.367 270.424 130.079 270.784 135.799 270.837C154.055 270.854 172.115 267.074 188.832 259.737C190.512 258.975 192.012 257.867 193.234 256.485C194.456 255.104 195.372 253.48 195.924 251.72C196.519 250 196.731 248.17 196.544 246.359C196.358 244.548 195.778 242.8 194.845 241.237C183.436 221.195 160.465 181.266 146.745 157.678C139.67 145.505 135.947 131.675 135.953 117.595L135.799 21.2408Z" fill="#BC5E08"/>
<path d="M154.341 0.162109C153.483 0.162109 152.659 0.5032 152.052 1.11035C151.445 1.7175 151.104 2.54097 151.104 3.39961C151.059 3.80951 151.059 4.22304 151.104 4.63294C179.131 12.1052 203.906 28.6239 221.58 51.6231C239.255 74.6222 248.839 102.814 248.845 131.82H267.5C269.536 131.845 271.554 131.431 273.416 130.607C275.278 129.782 276.941 128.566 278.291 127.041C279.674 125.537 280.72 123.755 281.358 121.814C281.996 119.873 282.212 117.818 281.991 115.787C278.087 84.4216 263.055 55.499 239.629 34.2797C216.203 13.0605 185.939 0.953963 154.341 0.162109Z" fill="#C10239"/>
<defs>
<filter id="filter0_d_4517_1150" x="0.507812" y="8.60059" width="196.867" height="269.675" filterUnits="userSpaceOnUse" color-interpolation-filters="sRGB">
<feFlood flood-opacity="0" result="BackgroundImageFix"/>
<feColorMatrix in="SourceAlpha" type="matrix" values="0 0 0 0 0 0 0 0 0 0 0 0 0 0 0 0 0 0 127 0" result="hardAlpha"/>
<feOffset dy="4"/>
<feGaussianBlur stdDeviation="2"/>
<feComposite in2="hardAlpha" operator="out"/>
<feColorMatrix type="matrix" values="0 0 0 0 0 0 0 0 0 0 0 0 0 0 0 0 0 0 0.25 0"/>
<feBlend mode="normal" in2="BackgroundImageFix" result="effect1_dropShadow_4517_1150"/>
<feBlend mode="normal" in="SourceGraphic" in2="effect1_dropShadow_4517_1150" result="shape"/>
</filter>
<filter id="filter1_d_4517_1150" x="154.219" y="140.587" width="131.986" height="114.501" filterUnits="userSpaceOnUse" color-interpolation-filters="sRGB">
<feFlood flood-opacity="0" result="BackgroundImageFix"/>
<feColorMatrix in="SourceAlpha" type="matrix" values="0 0 0 0 0 0 0 0 0 0 0 0 0 0 0 0 0 0 127 0" result="hardAlpha"/>
<feOffset dy="4"/>
<feGaussianBlur stdDeviation="2"/>
<feComposite in2="hardAlpha" operator="out"/>
<feColorMatrix type="matrix" values="0 0 0 0 0 0 0 0 0 0 0 0 0 0 0 0 0 0 0.25 0"/>
<feBlend mode="normal" in2="BackgroundImageFix" result="effect1_dropShadow_4517_1150"/>
<feBlend mode="normal" in="SourceGraphic" in2="effect1_dropShadow_4517_1150" result="shape"/>
</filter>
<filter id="filter2_d_4517_1150" x="145.102" y="0.162109" width="138.973" height="139.659" filterUnits="userSpaceOnUse" color-interpolation-filters="sRGB">
<feFlood flood-opacity="0" result="BackgroundImageFix"/>
<feColorMatrix in="SourceAlpha" type="matrix" values="0 0 0 0 0 0 0 0 0 0 0 0 0 0 0 0 0 0 127 0" result="hardAlpha"/>
<feOffset dy="4"/>
<feGaussianBlur stdDeviation="2"/>
<feComposite in2="hardAlpha" operator="out"/>
<feColorMatrix type="matrix" values="0 0 0 0 0 0 0 0 0 0 0 0 0 0 0 0 0 0 0.25 0"/>
<feBlend mode="normal" in2="BackgroundImageFix" result="effect1_dropShadow_4517_1150"/>
<feBlend mode="normal" in="SourceGraphic" in2="effect1_dropShadow_4517_1150" result="shape"/>
</filter>
</defs>
</svg>
