<svg width="75" height="75" viewBox="0 0 75 75" fill="none" xmlns="http://www.w3.org/2000/svg">
<g clip-path="url(#clip0_4596_2601)">
<path fill-rule="evenodd" clip-rule="evenodd" d="M48.173 39.6583V47.4885C48.173 52.2165 44.2385 56.0847 39.4294 56.0847V44.3073L39.4277 34.8149C39.4277 33.8936 40.1944 32.7536 41.1316 32.2813L73.1698 16.1358C74.107 15.6634 74.8734 16.031 74.8734 16.952V25.4612L48.173 39.6583Z" fill="#00CED1"/>
<path fill-rule="evenodd" clip-rule="evenodd" d="M39.4294 28.6258L39.4277 19.1332C39.4277 18.2119 40.1944 17.0719 41.1316 16.5996L73.1698 0.454151C74.107 -0.0182189 74.8734 0.349421 74.8734 1.2704V10.7799L39.4294 28.6258Z" fill="#00CED1"/>
<path fill-rule="evenodd" clip-rule="evenodd" d="M63.4353 50.9274C40.9761 64.3067 38.9832 58.7591 39.5689 75.0003L74.8702 56.2702L74.9998 33.2539L63.4695 39.1173V50.9434L63.4353 50.9274Z" fill="#00CED1"/>
<path fill-rule="evenodd" clip-rule="evenodd" d="M11.5646 50.904C34.0237 64.2833 36.0166 58.7354 35.4309 74.9766L0.129741 56.2466L0 33.2305L11.5304 39.0938V50.9199L11.5646 50.904Z" fill="#00CED1"/>
<path fill-rule="evenodd" clip-rule="evenodd" d="M35.2317 56.0027L35.2533 18.5023C35.2533 18.5023 35.0018 16.2963 32.6419 15.8397L2.14851 0.154412C2.14851 0.154412 1.10032 -0.641067 0.0898438 1.37902L0.0977811 21.3816C0.0977811 21.3816 0.670991 28.0521 8.44517 30.0298L8.47924 18.5316C8.47924 18.5316 9.38595 14.2457 12.9369 17.6234L12.9486 32.6506C12.9486 32.6506 13.693 40.4564 21.9229 41.6468L21.8366 21.6645C21.8366 21.6645 24.4118 21.9543 26.6672 27.5559L26.756 47.0904C26.756 47.0904 28.1034 55.2021 35.2317 56.0027Z" fill="#00CED1"/>
</g>
<defs>
<clipPath id="clip0_4596_2601">
<rect width="75" height="75" fill="white"/>
</clipPath>
</defs>
</svg>
