<svg width="402" height="300" viewBox="0 0 402 300" fill="none" xmlns="http://www.w3.org/2000/svg">
<path d="M402 263.637H0V263.838H402V263.637Z" fill="#E6E6E6"/>
<path d="M376.642 270.74H361.551V270.942H376.642V270.74Z" fill="#E6E6E6"/>
<path d="M306.916 276.264H299.93V276.465H306.916V276.264Z" fill="#E6E6E6"/>
<path d="M240.612 273.486H225.047V273.688H240.612V273.486Z" fill="#E6E6E6"/>
<path d="M99.8576 273.377H65.1328V273.578H99.8576V273.377Z" fill="#E6E6E6"/>
<path d="M57.937 273.377H52.8477V273.578H57.937V273.377Z" fill="#E6E6E6"/>
<path d="M227.43 268.609H152.111V268.811H227.43V268.609Z" fill="#E6E6E6"/>
<path d="M190.642 227.722H35.3973C34.1811 227.72 33.0154 227.235 32.1562 226.372C31.297 225.51 30.8145 224.342 30.8145 223.124V4.55766C30.825 3.3466 31.3123 2.18863 32.1704 1.33526C33.0284 0.481903 34.188 0.00207461 35.3973 0H190.642C191.859 0 193.027 0.484423 193.888 1.3467C194.749 2.20898 195.233 3.37848 195.233 4.59792V223.124C195.233 224.344 194.749 225.513 193.888 226.375C193.027 227.238 191.859 227.722 190.642 227.722ZM35.3973 0.161049C34.2344 0.163182 33.1199 0.627335 32.2984 1.45163C31.4768 2.27592 31.0155 3.393 31.0155 4.55766V223.124C31.0155 224.289 31.4768 225.406 32.2984 226.23C33.1199 227.054 34.2344 227.519 35.3973 227.521H190.642C191.805 227.519 192.921 227.055 193.743 226.231C194.566 225.407 195.029 224.29 195.032 223.124V4.55766C195.029 3.39226 194.566 2.2752 193.743 1.45114C192.921 0.627073 191.805 0.163177 190.642 0.161049H35.3973Z" fill="#E6E6E6"/>
<path d="M364.41 227.722H209.157C207.94 227.72 206.774 227.235 205.913 226.373C205.053 225.511 204.569 224.343 204.566 223.124V4.55766C204.579 3.34587 205.068 2.1879 205.927 1.33476C206.787 0.481621 207.947 0.00205199 209.157 0H364.41C365.618 0.00419087 366.775 0.484955 367.631 1.33809C368.488 2.19123 368.974 3.34799 368.984 4.55766V223.124C368.984 224.341 368.503 225.508 367.646 226.37C366.788 227.231 365.624 227.718 364.41 227.722ZM209.157 0.161049C207.994 0.163177 206.878 0.627073 206.056 1.45114C205.233 2.2752 204.77 3.39226 204.767 4.55766V223.124C204.77 224.29 205.233 225.407 206.056 226.231C206.878 227.055 207.994 227.519 209.157 227.521H364.41C365.573 227.519 366.689 227.055 367.511 226.231C368.334 225.407 368.797 224.29 368.8 223.124V4.55766C368.797 3.39226 368.334 2.2752 367.511 1.45114C366.689 0.627073 365.573 0.163177 364.41 0.161049H209.157Z" fill="#E6E6E6"/>
<path d="M209.802 15.0391H47.1934V131.098H209.802V15.0391Z" fill="#FAFAFA"/>
<path d="M212.768 15.0391H48.5586V131.098H212.768V15.0391Z" fill="#F5F5F5"/>
<path d="M208.664 126.357V19.7754L52.881 19.7754V126.357L208.664 126.357Z" fill="#FAFAFA"/>
<path d="M81.125 126.357L105.84 19.7754H138.241L113.526 126.357H81.125Z" fill="white"/>
<path d="M118.762 126.357L143.485 19.7754H158.118L133.395 126.357H118.762Z" fill="white"/>
<path d="M208.664 126.357V19.7754H208.126V126.357H208.664Z" fill="#FAFAFA"/>
<path d="M44.0723 14.8506V60.846H56.2207C56.2207 60.846 78.0171 46.5851 83.01 17.2502C83.131 16.5477 83.0968 15.8271 82.9098 15.1392C82.7229 14.4512 82.3877 13.8127 81.9278 13.2685C81.468 12.7243 80.8947 12.2876 80.2482 11.9891C79.6017 11.6907 78.8978 11.5378 78.186 11.5411H47.3767C46.5003 11.5411 45.6598 11.8897 45.0401 12.5104C44.4204 13.1311 44.0723 13.9729 44.0723 14.8506Z" fill="#E0E0E0"/>
<path d="M44.0723 145.298V64.5566H56.2207C56.2207 64.5566 80.8794 112.106 83.7336 145.298H44.0723Z" fill="#E0E0E0"/>
<path d="M55.8614 60.8457H44.509C43.8385 60.8457 43.2949 61.3901 43.2949 62.0616V63.342C43.2949 64.0135 43.8385 64.5579 44.509 64.5579H55.8614C56.5319 64.5579 57.0755 64.0135 57.0755 63.342V62.0616C57.0755 61.3901 56.5319 60.8457 55.8614 60.8457Z" fill="#F5F5F5"/>
<path d="M216.295 14.8506V60.8459H204.122C204.122 60.8459 182.294 46.5851 177.333 17.2502C177.214 16.5478 177.249 15.8278 177.436 15.1405C177.624 14.4532 177.959 13.8152 178.419 13.2713C178.878 12.7275 179.451 12.2908 180.097 11.9919C180.742 11.693 181.446 11.5391 182.157 11.541H212.999C213.873 11.5453 214.71 11.8956 215.328 12.5156C215.945 13.1355 216.293 13.9749 216.295 14.8506Z" fill="#E0E0E0"/>
<path d="M216.365 145.298V64.5566H204.193C204.193 64.5566 179.542 112.106 176.68 145.298H216.365Z" fill="#E0E0E0"/>
<path d="M204.48 64.5508H215.833C216.503 64.5508 217.047 64.0064 217.047 63.3349V62.0545C217.047 61.383 216.503 60.8386 215.833 60.8386H204.48C203.81 60.8386 203.266 61.383 203.266 62.0545V63.3349C203.266 64.0064 203.81 64.5508 204.48 64.5508Z" fill="#F5F5F5"/>
<path d="M212.563 159.967H185.846V263.634H212.563V159.967Z" fill="#FAFAFA"/>
<path d="M205.415 263.634H212.546V251.66H197.938L205.415 263.634Z" fill="#F4F8FF"/>
<path d="M84.8302 159.967H58.1133V263.634H84.8302V159.967Z" fill="#E0E0E0"/>
<path d="M212.633 159.967H78.5898V259.511H212.633V159.967Z" fill="#FAFAFA"/>
<path d="M118.762 142.365C118.762 152.028 128.056 159.968 139.425 159.968H149.684C161.044 159.968 170.338 152.044 170.338 142.365H118.762Z" fill="#EBEBEB"/>
<path d="M112.8 120.246H132.096C132.096 120.246 128.744 129.104 128.744 134.322C128.744 139.54 143.425 159.969 122.448 159.969C101.472 159.969 116.153 139.532 116.153 134.322C116.153 129.112 112.8 120.246 112.8 120.246Z" fill="#E0E0E0"/>
<path d="M207.033 166.035H84.0527V191.135H207.033V166.035Z" fill="#EBEBEB"/>
<path d="M85.7213 263.634H78.5898V251.66H93.2066L85.7213 263.634Z" fill="#FAFAFA"/>
<path d="M141.771 178.578C141.771 179.326 141.993 180.058 142.408 180.68C142.824 181.303 143.414 181.788 144.104 182.074C144.795 182.361 145.554 182.436 146.287 182.29C147.021 182.143 147.694 181.783 148.222 181.254C148.751 180.724 149.111 180.05 149.256 179.316C149.402 178.582 149.327 177.821 149.041 177.129C148.755 176.438 148.271 175.847 147.65 175.431C147.028 175.015 146.298 174.793 145.55 174.793C144.548 174.793 143.587 175.192 142.878 175.901C142.17 176.611 141.771 177.574 141.771 178.578Z" fill="#FAFAFA"/>
<path d="M207.033 197.193H84.0527V222.293H207.033V197.193Z" fill="#EBEBEB"/>
<path d="M141.771 209.742C141.771 210.49 141.993 211.222 142.408 211.844C142.824 212.467 143.414 212.952 144.104 213.238C144.795 213.525 145.554 213.6 146.287 213.454C147.021 213.308 147.694 212.947 148.222 212.418C148.751 211.889 149.111 211.214 149.256 210.48C149.402 209.746 149.327 208.985 149.041 208.293C148.755 207.602 148.271 207.011 147.65 206.595C147.028 206.179 146.298 205.957 145.55 205.957C144.548 205.957 143.587 206.356 142.878 207.066C142.17 207.775 141.771 208.738 141.771 209.742Z" fill="#FAFAFA"/>
<path d="M207.033 228.352H84.0527V253.451H207.033V228.352Z" fill="#EBEBEB"/>
<path d="M145.55 244.69C147.637 244.69 149.329 242.996 149.329 240.906C149.329 238.816 147.637 237.121 145.55 237.121C143.463 237.121 141.771 238.816 141.771 240.906C141.771 242.996 143.463 244.69 145.55 244.69Z" fill="#FAFAFA"/>
<path d="M297.4 13.6406H237.719V56.1895H297.4V13.6406Z" fill="#E0E0E0"/>
<path d="M302.195 13.6406H241.035V56.1895H302.195V13.6406Z" fill="#F5F5F5"/>
<path d="M298.367 52.285V17.5469L245.006 17.5469V52.285H298.367Z" fill="white"/>
<path d="M289.008 42.1645V27.6621L254.428 27.6621V42.1645H289.008Z" fill="#F5F5F5"/>
<path d="M345.809 34.9121H309.484V73.0644H345.809V34.9121Z" fill="#E0E0E0"/>
<path d="M350.609 34.9121H312.797V73.0644H350.609V34.9121Z" fill="#F5F5F5"/>
<path d="M346.73 69.1598V38.8184H316.717V69.1598H346.73Z" fill="white"/>
<path d="M326.258 53.9886C326.258 52.6488 326.789 51.3637 327.734 50.4156C328.679 49.4675 329.961 48.9338 331.299 48.9316H332.441C333.778 48.9338 335.06 49.4675 336.006 50.4156C336.951 51.3637 337.482 52.6488 337.482 53.9886C337.482 55.3276 336.951 56.6118 336.005 57.5586C335.06 58.5055 333.778 59.0374 332.441 59.0374H331.339C330.674 59.0427 330.014 58.9161 329.398 58.6647C328.781 58.4134 328.221 58.0423 327.749 57.5729C327.276 57.1036 326.901 56.5452 326.645 55.93C326.39 55.3148 326.258 54.655 326.258 53.9886Z" fill="#F5F5F5"/>
<path d="M401.968 86.041H306.051H288.612V108.242H271.174V130.442H253.735V152.643H236.296V174.843H218.857V197.035H201.419V219.236H183.98V241.436H166.541V263.637H183.98H401.968V86.041Z" fill="#FAFAFA"/>
<path d="M264.182 241.438H164.783V248.097H264.182V241.438Z" fill="#EBEBEB"/>
<path d="M281.539 219.232H182.141V225.892H281.539V219.232Z" fill="#EBEBEB"/>
<path d="M299.09 197.033H199.691V203.693H299.09V197.033Z" fill="#EBEBEB"/>
<path d="M316.445 174.836H217.047V181.495H316.445V174.836Z" fill="#EBEBEB"/>
<path d="M334 152.643H234.602V159.302H334V152.643Z" fill="#EBEBEB"/>
<path d="M351.356 130.439H251.957V137.099H351.356V130.439Z" fill="#EBEBEB"/>
<path d="M368.906 108.24H269.508V114.9H368.906V108.24Z" fill="#EBEBEB"/>
<path d="M386.258 86.041H286.859V92.7003H386.258V86.041Z" fill="#EBEBEB"/>
<path d="M384.556 86.041V108.242H367.117V130.442H349.678V152.643H332.239V174.843H314.801V197.035H297.362V219.236H279.923V241.436H262.484V263.637H279.923H401.995V108.242V86.041H384.556Z" fill="white"/>
<path d="M201.13 300C287.224 300 357.017 295.919 357.017 290.885C357.017 285.851 287.224 281.77 201.13 281.77C115.035 281.77 45.2422 285.851 45.2422 290.885C45.2422 295.919 115.035 300 201.13 300Z" fill="#F5F5F5"/>
<path d="M293.59 86.1599C294.716 89.9364 300.521 97.0065 300.979 102.152C301.438 107.297 291.54 115.527 291.54 115.527C291.54 115.527 284.143 90.7578 288.775 87.867C293.406 84.9762 293.59 86.1599 293.59 86.1599Z" fill="black"/>
<path d="M273.323 112.918C271.57 114.384 269.85 115.616 268.057 116.88C266.264 118.144 264.415 119.296 262.533 120.375C260.645 121.494 258.7 122.512 256.704 123.427C255.691 123.886 254.686 124.337 253.641 124.731C253.127 124.941 252.604 125.142 252.073 125.319L250.465 125.883C249.091 126.268 247.652 126.372 246.236 126.189C245.053 126.05 243.881 125.824 242.731 125.512C240.587 124.918 238.488 124.17 236.452 123.274C232.498 121.545 228.684 119.512 225.043 117.194L226.546 114.392C228.444 115.197 230.39 116.002 232.319 116.703C234.249 117.403 236.194 118.144 238.14 118.748C240.037 119.371 241.97 119.876 243.929 120.262C244.828 120.438 245.739 120.549 246.654 120.592C247.337 120.645 248.023 120.574 248.681 120.383C250.515 119.68 252.308 118.873 254.051 117.967C254.944 117.5 255.828 117.025 256.696 116.51C257.565 115.994 258.449 115.495 259.309 114.964C261.038 113.893 262.726 112.757 264.399 111.59C266.071 110.422 267.735 109.174 269.223 107.99L273.323 112.918Z" fill="#E58A7B"/>
<path d="M277.572 104.345C275.578 102.783 267.329 107.896 264.828 110.03L266.653 121.086C266.653 121.086 278.512 116.109 279.22 112.711C279.967 109.16 279.059 105.537 277.572 104.345Z" fill="#00CED1"/>
<path d="M277.572 104.345C275.578 102.783 267.329 107.896 264.828 110.03L266.653 121.086C266.653 121.086 278.512 116.109 279.22 112.711C279.967 109.16 279.059 105.537 277.572 104.345Z" fill="black"/>
<path d="M305.312 137.803L280.276 142.691C267.339 107.607 270.153 106.455 270.153 106.455C271.973 105.454 273.852 104.567 275.781 103.798L276.119 103.669C277.727 103.082 278.048 102.993 280.187 102.365C283.869 101.487 287.302 100.754 291.556 100.15L292.36 100.038C293.164 99.9411 293.895 99.8605 294.635 99.7881C295.133 99.7317 295.632 99.6995 296.106 99.6673L297.714 99.5787C300.464 99.4418 302.434 99.4821 302.434 99.4821C301.67 121.393 302.908 127.682 305.312 137.803Z" fill="#00CED1"/>
<path d="M305.312 137.803L280.276 142.691C267.339 107.607 270.153 106.455 270.153 106.455C271.973 105.454 273.852 104.567 275.781 103.798L276.119 103.669C277.727 103.082 278.048 102.993 280.187 102.365C283.869 101.487 287.302 100.754 291.556 100.15L292.36 100.038C293.164 99.9411 293.895 99.8605 294.635 99.7881C295.133 99.7317 295.632 99.6995 296.106 99.6673L297.714 99.5787C300.464 99.4418 302.434 99.4821 302.434 99.4821C301.67 121.393 302.908 127.682 305.312 137.803Z" fill="black"/>
<path d="M285.575 88.6802C283.967 91.3455 289.797 92.5775 293.246 89.8478C296.003 87.6575 295.352 82.6006 292.988 81.4249C290.625 80.2493 285.575 88.6802 285.575 88.6802Z" fill="#00CED1"/>
<path opacity="0.4" d="M285.575 88.6802C283.967 91.3455 289.797 92.5775 293.246 89.8478C296.003 87.6575 295.352 82.6006 292.988 81.4249C290.625 80.2493 285.575 88.6802 285.575 88.6802Z" fill="black"/>
<path d="M310.043 283.018L303.78 283.485L301.488 269.047L307.751 268.58L310.043 283.018Z" fill="#E58A7B"/>
<path d="M354.293 262.837L348.979 266.187L339.516 254.946L344.83 251.588L354.293 262.837Z" fill="#E58A7B"/>
<path d="M301.488 269.045L302.759 277.065L308.933 276.026L307.759 268.586L301.488 269.045Z" fill="#CF6F64"/>
<path d="M344.838 251.6L339.516 254.949L343.439 259.604L348.874 256.391L344.838 251.6Z" fill="#CF6F64"/>
<path d="M280.621 142.687C280.621 142.687 280.533 192.467 284.593 211.213C288.822 230.716 301.26 275.084 301.26 275.084L310.281 273.917C310.281 273.917 303.23 229.097 300.223 209.715C296.95 188.593 298.96 139.111 298.96 139.111L280.621 142.687Z" fill="#00CED1"/>
<path opacity="0.7" d="M280.621 142.687C280.621 142.687 280.533 192.467 284.593 211.213C288.822 230.716 301.26 275.084 301.26 275.084L310.281 273.917C310.281 273.917 303.23 229.097 300.223 209.715C296.95 188.593 298.96 139.111 298.96 139.111L280.621 142.687Z" fill="black"/>
<path opacity="0.5" d="M298.305 161.176L293.883 156.764C294.052 175.888 295.121 185.334 298.795 195.625C298.216 184.746 298.168 171.878 298.305 161.176Z" fill="black"/>
<path d="M286.863 141.398C286.863 141.398 300.346 182.538 307.036 206.236C314.095 231.239 341.157 258.891 341.157 258.891L348.924 254.398C348.924 254.398 330.432 228.147 323.63 204.819C309.801 157.463 315.486 147.43 305.283 137.799L286.863 141.398Z" fill="#00CED1"/>
<path opacity="0.7" d="M286.863 141.398C286.863 141.398 300.346 182.538 307.036 206.236C314.095 231.239 341.157 258.891 341.157 258.891L348.924 254.398C348.924 254.398 330.432 228.147 323.63 204.819C309.801 157.463 315.486 147.43 305.283 137.799L286.863 141.398Z" fill="black"/>
<path d="M276.294 74.1523C279.88 75.3522 283.136 84.2662 283.273 87.777C283.41 91.2879 272.885 96.1274 272.885 96.1274C272.885 96.1274 268.246 84.854 269.541 77.6068C270.103 74.4583 276.294 74.1523 276.294 74.1523Z" fill="black"/>
<path d="M226.98 114.691L222.727 110.053L221.336 115.867C221.336 115.867 224.359 118.54 226.803 117.622L226.98 114.691Z" fill="#E58A7B"/>
<path d="M218.463 108.723L215.488 111.09L221.382 115.865L222.773 110.051L218.463 108.723Z" fill="#E58A7B"/>
<path d="M347.386 264.987L352.355 259.97C352.44 259.885 352.554 259.832 352.675 259.824C352.796 259.815 352.916 259.85 353.014 259.922L357.54 263.288C357.652 263.376 357.744 263.487 357.811 263.613C357.877 263.74 357.915 263.879 357.923 264.021C357.932 264.163 357.91 264.306 357.859 264.439C357.808 264.572 357.73 264.693 357.629 264.794C355.86 266.509 354.927 267.25 352.74 269.456C351.398 270.817 349.573 272.935 347.715 274.811C345.858 276.687 343.904 274.94 344.499 274.006C347.209 269.762 346.727 268.176 346.911 266.018C346.939 265.628 347.108 265.262 347.386 264.987Z" fill="#263238"/>
<path d="M303.414 282.582H310.473C310.597 282.582 310.717 282.625 310.813 282.705C310.908 282.784 310.973 282.895 310.995 283.017L312.105 288.605C312.13 288.743 312.124 288.884 312.088 289.019C312.052 289.154 311.987 289.279 311.897 289.386C311.807 289.493 311.695 289.579 311.568 289.637C311.442 289.696 311.304 289.726 311.164 289.725C308.696 289.684 307.506 289.539 304.402 289.539C302.497 289.539 298.557 289.733 295.92 289.733C293.283 289.733 293.002 287.124 294.087 286.89C298.911 285.827 300.801 284.37 302.384 282.969C302.672 282.723 303.036 282.586 303.414 282.582Z" fill="#263238"/>
<g style="mix-blend-mode:multiply" opacity="0.27">
<path d="M303.203 112.178L299.344 114.481L303.798 131.254C302.825 126.173 303.259 120.592 303.203 112.178Z" fill="#00CED1"/>
</g>
<path d="M281.207 85.9933C283.949 88.2883 287.928 91.63 292.616 87.7246C296.636 84.3587 299.45 75.5252 292.238 75.2031C288.467 75.034 281.207 85.9933 281.207 85.9933Z" fill="black"/>
<path d="M287.874 87.5625C287.874 91.3632 288.461 98.2158 291.492 100.165C291.492 100.165 291.219 104.078 284.417 105.399C276.948 106.856 280.124 102.379 280.124 102.379C284.015 100.607 283.34 97.5958 282.053 94.8902L287.874 87.5625Z" fill="#E58A7B"/>
<path d="M285.429 90.5527L281.988 94.893C282.29 95.5203 282.537 96.1722 282.728 96.8417C284.239 96.3102 286.048 94.1844 285.896 92.5175C285.863 91.8394 285.705 91.1732 285.429 90.5527Z" fill="#CF6F64"/>
<path d="M288.276 78.8339C289.08 85.0262 289.57 87.6271 287.094 91.3715C283.371 97.0081 275.605 96.6458 272.96 90.8239C270.548 85.5818 269.647 76.3296 275.147 72.7462C276.356 71.9445 277.75 71.466 279.196 71.3563C280.642 71.2467 282.092 71.5094 283.408 72.1196C284.724 72.7298 285.862 73.6671 286.714 74.8423C287.566 76.0176 288.104 77.3917 288.276 78.8339Z" fill="#E58A7B"/>
<path d="M277.5 67.9869C273.319 70.9582 281.705 71.8359 281.713 76.144C281.713 77.9235 284.632 83.5683 288.78 83.2462L292.8 76.0956C297.029 69.2511 287.036 61.1987 277.5 67.9869Z" fill="black"/>
<path d="M277.407 67.9869C270.05 67.6004 266.842 73.4625 267.686 78.7288C272.819 77.4472 278.127 77.0255 283.397 77.4807C293.479 78.5114 277.407 67.9869 277.407 67.9869Z" fill="black"/>
<path d="M290.254 84.1697C290.356 85.3717 289.977 86.565 289.201 87.4873C288.164 88.7032 286.789 87.9866 286.306 86.5452C285.896 85.2407 285.944 83.0424 287.343 82.3499C287.652 82.2067 287.992 82.1429 288.332 82.1642C288.672 82.1854 289.001 82.2911 289.29 82.4717C289.579 82.6523 289.818 82.9021 289.986 83.1986C290.155 83.495 290.247 83.8288 290.254 84.1697Z" fill="#E58A7B"/>
<path d="M279.289 82.3517C279.385 82.851 279.2 83.3019 278.879 83.3663C278.557 83.4307 278.212 83.0764 278.115 82.5611C278.019 82.0457 278.204 81.6028 278.525 81.5384C278.847 81.474 279.192 81.8525 279.289 82.3517Z" fill="#263238"/>
<path d="M273.629 83.4458C273.725 83.945 273.54 84.404 273.219 84.4684C272.897 84.5328 272.552 84.1785 272.455 83.6632C272.359 83.1478 272.544 82.7049 272.865 82.6486C273.187 82.5922 273.532 82.9385 273.629 83.4458Z" fill="#263238"/>
<path d="M273.11 82.6613L271.848 82.5566C271.848 82.5566 272.643 83.3699 273.11 82.6613Z" fill="#263238"/>
<path d="M275.345 84.0215C275.119 85.2413 274.73 86.425 274.188 87.5404C274.476 87.675 274.79 87.7447 275.108 87.7447C275.426 87.7447 275.74 87.675 276.028 87.5404L275.345 84.0215Z" fill="#DF5753"/>
<path d="M278.038 89.1475C278.003 89.148 277.97 89.1361 277.943 89.1139C277.916 89.0918 277.899 89.0608 277.893 89.0267C277.889 89.0077 277.89 88.9881 277.894 88.9692C277.898 88.9503 277.906 88.9324 277.918 88.9167C277.929 88.9009 277.943 88.8876 277.96 88.8774C277.976 88.8673 277.994 88.8606 278.014 88.8576C278.635 88.7493 279.222 88.4961 279.728 88.1184C280.233 87.7407 280.643 87.2491 280.924 86.6835C280.931 86.6655 280.942 86.6492 280.956 86.6354C280.97 86.6216 280.986 86.6107 281.004 86.6032C281.022 86.5957 281.041 86.5918 281.06 86.5918C281.08 86.5918 281.099 86.5956 281.117 86.603C281.135 86.6104 281.151 86.6212 281.165 86.6349C281.179 86.6487 281.19 86.665 281.197 86.6829C281.205 86.7009 281.208 86.7201 281.209 86.7395C281.209 86.759 281.205 86.7782 281.197 86.7962C280.903 87.4109 280.465 87.9456 279.921 88.3549C279.376 88.7641 278.741 89.036 278.07 89.1475H278.038Z" fill="#263238"/>
<path d="M280.541 80.2101C280.468 80.2109 280.396 80.1852 280.34 80.1376C280.07 79.8801 279.742 79.6904 279.384 79.5841C279.027 79.4777 278.649 79.4577 278.282 79.5256C278.201 79.5459 278.115 79.5331 278.044 79.4901C277.972 79.4471 277.92 79.3773 277.9 79.2961C277.88 79.215 277.893 79.1291 277.936 79.0574C277.978 78.9856 278.048 78.9339 278.129 78.9136C278.593 78.8223 279.071 78.8425 279.526 78.9727C279.98 79.1029 280.397 79.3393 280.742 79.6625C280.797 79.7183 280.828 79.7935 280.828 79.8719C280.828 79.9503 280.797 80.0255 280.742 80.0812C280.72 80.1158 280.69 80.1452 280.656 80.1674C280.621 80.1896 280.582 80.2042 280.541 80.2101Z" fill="#263238"/>
<path d="M270.587 81.3292C270.55 81.3376 270.512 81.3376 270.474 81.3292C270.438 81.3143 270.404 81.2921 270.376 81.264C270.348 81.236 270.326 81.2026 270.311 81.1659C270.296 81.1291 270.289 81.0897 270.289 81.05C270.29 81.0103 270.298 80.9711 270.314 80.9347C270.485 80.4943 270.759 80.1014 271.113 79.7889C271.466 79.4765 271.89 79.2536 272.348 79.139C272.386 79.1309 272.426 79.1308 272.465 79.1387C272.504 79.1466 272.54 79.1623 272.573 79.185C272.605 79.2076 272.633 79.2366 272.653 79.2702C272.674 79.3039 272.688 79.3414 272.693 79.3805C272.702 79.4187 272.702 79.4581 272.695 79.4963C272.687 79.5346 272.672 79.571 272.65 79.6033C272.629 79.6357 272.601 79.6633 272.568 79.6845C272.535 79.7057 272.499 79.7201 272.46 79.7268C272.099 79.8255 271.766 80.0072 271.486 80.2573C271.207 80.5075 270.99 80.8194 270.852 81.1682C270.826 81.2163 270.788 81.2566 270.742 81.2849C270.695 81.3133 270.642 81.3286 270.587 81.3292Z" fill="#263238"/>
<path d="M345.396 267.915C345.258 267.911 345.123 267.874 345.003 267.807C344.882 267.74 344.78 267.644 344.705 267.528C344.648 267.46 344.609 267.378 344.594 267.291C344.578 267.203 344.586 267.113 344.616 267.029C344.898 266.272 347.117 265.789 347.366 265.733C347.395 265.728 347.425 265.731 347.452 265.742C347.479 265.754 347.502 265.773 347.519 265.797C347.536 265.821 347.545 265.849 347.545 265.878C347.545 265.907 347.536 265.935 347.519 265.958C347.085 266.675 346.232 267.875 345.436 267.915H345.396ZM347.076 266.103C346.2 266.329 345.042 266.731 344.898 267.134C344.883 267.171 344.88 267.211 344.889 267.25C344.898 267.289 344.917 267.324 344.946 267.351C344.996 267.434 345.067 267.503 345.151 267.549C345.236 267.596 345.332 267.619 345.428 267.617C345.854 267.593 346.457 267.037 347.076 266.103Z" fill="#00CED1"/>
<path d="M346.781 266.096C345.977 266.096 344.972 265.895 344.674 265.46C344.608 265.361 344.578 265.243 344.588 265.124C344.598 265.006 344.648 264.894 344.73 264.808C344.801 264.718 344.89 264.644 344.991 264.592C345.092 264.539 345.203 264.508 345.317 264.502H345.382C346.282 264.502 347.52 265.718 347.569 265.766C347.588 265.784 347.602 265.807 347.609 265.833C347.616 265.859 347.616 265.886 347.609 265.911C347.602 265.936 347.588 265.959 347.57 265.977C347.552 265.995 347.529 266.009 347.504 266.016C347.267 266.073 347.024 266.1 346.781 266.096ZM345.382 264.8H345.333C345.261 264.802 345.191 264.821 345.127 264.854C345.063 264.888 345.007 264.935 344.964 264.993C344.851 265.146 344.883 265.235 344.923 265.291C345.165 265.661 346.395 265.871 347.15 265.782C346.668 265.29 346.054 264.949 345.382 264.8Z" fill="#00CED1"/>
<path d="M300.994 283.689C300.453 283.737 299.912 283.6 299.458 283.302C299.351 283.218 299.266 283.109 299.213 282.983C299.16 282.858 299.139 282.721 299.153 282.586C299.152 282.505 299.173 282.425 299.212 282.354C299.251 282.284 299.309 282.225 299.378 282.183C300.117 281.748 302.706 283.037 302.996 283.181C303.023 283.196 303.045 283.218 303.06 283.245C303.074 283.273 303.08 283.304 303.076 283.334C303.072 283.365 303.06 283.393 303.04 283.416C303.019 283.439 302.993 283.456 302.964 283.463C302.315 283.599 301.656 283.675 300.994 283.689ZM299.804 282.384C299.709 282.378 299.615 282.398 299.53 282.441C299.503 282.455 299.481 282.477 299.467 282.505C299.452 282.532 299.447 282.563 299.45 282.594C299.442 282.684 299.456 282.776 299.491 282.86C299.526 282.944 299.581 283.019 299.651 283.077C300.053 283.423 301.09 283.479 302.457 283.254C301.627 282.818 300.73 282.524 299.804 282.384Z" fill="#00CED1"/>
<path d="M303.016 283.442H302.96C302.156 283.095 300.604 281.726 300.717 281.026C300.717 280.865 300.861 280.655 301.263 280.615H301.384C302.783 280.615 303.145 283.176 303.161 283.289C303.164 283.316 303.161 283.343 303.151 283.368C303.142 283.394 303.125 283.416 303.105 283.434C303.076 283.445 303.046 283.447 303.016 283.442ZM301.408 280.897H301.32C301.062 280.897 301.046 281.018 301.046 281.05C300.982 281.477 302.043 282.548 302.847 283.023C302.687 282.395 302.276 280.913 301.376 280.913L301.408 280.897Z" fill="#00CED1"/>
<path d="M278.766 81.5639L277.504 81.4512C277.504 81.4512 278.3 82.2725 278.766 81.5639Z" fill="#263238"/>
<path d="M284.304 110.755C270.853 113.758 275.009 105.609 275.813 103.813L276.151 103.685C277.759 103.097 278.081 103.008 280.219 102.38C283.951 101.371 287.75 100.631 291.588 100.166L292.392 100.053C293.196 99.9483 293.927 99.8678 294.667 99.8034C295.166 99.747 295.664 99.7148 296.138 99.6826L297.746 99.5859C298.02 100.842 298.687 107.558 284.304 110.755Z" fill="#E58A7B"/>
<path d="M305.428 136.256L306.996 138.285C307.116 138.438 306.948 138.656 306.658 138.712L280.4 143.834C280.174 143.882 279.965 143.834 279.925 143.664L279.258 141.466C279.258 141.313 279.386 141.144 279.628 141.096L304.986 136.152C305.062 136.129 305.143 136.127 305.221 136.145C305.298 136.163 305.37 136.202 305.428 136.256Z" fill="#26395A"/>
<path d="M302.47 139.755L303.154 139.626C303.29 139.626 303.379 139.514 303.354 139.425L302.47 136.574C302.47 136.486 302.31 136.446 302.173 136.47L301.498 136.599C301.361 136.599 301.273 136.719 301.297 136.8L302.181 139.659C302.205 139.739 302.342 139.787 302.47 139.755Z" fill="#00CED1"/>
<path d="M287.027 149.257L281.793 147.309L282.597 152.293C282.597 152.293 286.392 153.662 288.329 151.907L287.027 149.257Z" fill="#E58A7B"/>
<path d="M276.797 148.629L275.551 151.898L282.586 152.293L281.782 147.309L276.797 148.629Z" fill="#E58A7B"/>
<path d="M282.192 143.704L282.875 143.576C283.004 143.576 283.1 143.463 283.068 143.374L282.184 140.524C282.184 140.435 282.031 140.395 281.894 140.419L281.211 140.548C281.075 140.548 280.986 140.669 281.018 140.749L281.902 143.608C281.927 143.688 282.055 143.737 282.192 143.704Z" fill="#00CED1"/>
<path d="M292.342 141.72L293.017 141.591C293.153 141.591 293.242 141.478 293.218 141.39L292.334 138.539C292.334 138.451 292.173 138.41 292.036 138.435L291.361 138.563C291.225 138.563 291.136 138.684 291.16 138.765L292.044 141.623C292.076 141.67 292.123 141.705 292.177 141.722C292.23 141.74 292.288 141.739 292.342 141.72Z" fill="#00CED1"/>
<path d="M289.525 96.9656C290.096 96.7482 290.812 98.7613 290.635 99.019C290.225 99.6068 282.716 101.66 282.378 100.509C282.357 99.8845 282.452 99.2619 282.659 98.6727C282.876 98.2862 284.541 98.9948 289.525 96.9656Z" fill="#00CED1"/>
<path d="M288.294 97.0127C288.583 96.3443 289.411 95.2734 290.135 95.8853C290.859 96.4973 291.164 97.8179 290.69 98.0353C290.215 98.2527 287.795 98.132 288.294 97.0127Z" fill="#00CED1"/>
<path d="M289.781 97.3642C290.28 96.8328 291.389 96.1 291.896 96.9214C292.402 97.7427 292.217 99.0875 291.703 99.1277C291.188 99.168 288.937 98.242 289.781 97.3642Z" fill="#00CED1"/>
<path d="M289.994 97.2429C289.954 96.8148 290.038 96.384 290.236 96.0026C290.434 95.6211 290.738 95.3052 291.112 95.0929C292.028 94.497 292.921 94.1105 293.275 93.4824C293.427 94.0713 293.457 94.6852 293.363 95.2862C293.178 96.1478 290.324 96.8081 290.517 97.5569L289.994 97.2429Z" fill="#00CED1"/>
<path d="M289.877 97.2015C289.611 96.8636 289.448 96.4556 289.408 96.027C289.368 95.5983 289.453 95.1673 289.652 94.7858C290.086 93.7873 290.633 92.982 290.6 92.2734C291.047 92.6854 291.405 93.184 291.653 93.739C291.959 94.5442 289.925 96.662 290.496 97.1935L289.877 97.2015Z" fill="#00CED1"/>
<path d="M345.913 254.508C345.897 254.507 345.881 254.502 345.867 254.494C345.853 254.485 345.841 254.474 345.833 254.459C345.648 254.202 327.269 227.935 320.531 204.856C316.134 190.053 312.755 174.965 310.417 159.699C309.026 151.099 308.182 145.905 305.416 141.645C305.397 141.626 305.387 141.6 305.387 141.573C305.387 141.546 305.397 141.52 305.416 141.5C305.435 141.484 305.459 141.475 305.484 141.475C305.509 141.475 305.534 141.484 305.553 141.5C308.35 145.8 309.195 151.01 310.586 159.634C312.934 174.879 316.319 189.945 320.716 204.728C327.445 227.774 345.809 254.008 345.994 254.274C346.009 254.294 346.017 254.318 346.017 254.343C346.017 254.367 346.009 254.391 345.994 254.411C345.993 254.434 345.984 254.455 345.97 254.473C345.955 254.49 345.935 254.502 345.913 254.508Z" fill="#00CED1"/>
<path opacity="0.4" d="M345.913 254.508C345.897 254.507 345.881 254.502 345.867 254.494C345.853 254.485 345.841 254.474 345.833 254.459C345.648 254.202 327.269 227.935 320.531 204.856C316.134 190.053 312.755 174.965 310.417 159.699C309.026 151.099 308.182 145.905 305.416 141.645C305.397 141.626 305.387 141.6 305.387 141.573C305.387 141.546 305.397 141.52 305.416 141.5C305.435 141.484 305.459 141.475 305.484 141.475C305.509 141.475 305.534 141.484 305.553 141.5C308.35 145.8 309.195 151.01 310.586 159.634C312.934 174.879 316.319 189.945 320.716 204.728C327.445 227.774 345.809 254.008 345.994 254.274C346.009 254.294 346.017 254.318 346.017 254.343C346.017 254.367 346.009 254.391 345.994 254.411C345.993 254.434 345.984 254.455 345.97 254.473C345.955 254.49 345.935 254.502 345.913 254.508Z" fill="black"/>
<path d="M311.847 273.886L299.562 275.48L298.758 272.05L311.549 269.336L311.847 273.886Z" fill="#00CED1"/>
<path d="M349.483 254.128L340.422 259.37L337.367 256.753L347.281 250.037L349.483 254.128Z" fill="#00CED1"/>
<path d="M306.985 108.008C307.419 110.246 307.669 112.356 307.91 114.538C308.151 116.721 308.239 118.879 308.304 121.061C308.368 123.26 308.32 125.461 308.159 127.656C308.071 128.759 307.974 129.862 307.821 130.973C307.757 131.521 307.685 132.076 307.58 132.632L307.283 134.339C306.953 135.731 306.349 137.042 305.506 138.196C304.814 139.167 304.051 140.085 303.223 140.942C301.671 142.538 300.005 144.019 298.238 145.371C294.819 148.007 291.201 150.374 287.416 152.449L285.695 149.776C287.303 148.495 288.911 147.175 290.519 145.83C292.127 144.485 293.655 143.124 295.126 141.707C296.58 140.343 297.952 138.894 299.235 137.367C299.824 136.66 300.361 135.912 300.843 135.128C301.222 134.557 301.495 133.921 301.647 133.252C301.908 131.297 302.061 129.33 302.105 127.358C302.105 126.351 302.105 125.345 302.105 124.338C302.105 123.332 302.065 122.309 302.017 121.294C301.92 119.265 301.735 117.268 301.518 115.207C301.301 113.145 301.02 111.108 300.714 109.2L306.985 108.008Z" fill="#E58A7B"/>
<path d="M305.965 101.16C309.398 103.946 308.578 112.224 308.578 112.224L297 116.041C297 116.041 297.531 106.499 298.11 103.068C298.785 98.9856 302.58 98.4139 305.965 101.16Z" fill="#00CED1"/>
<path d="M305.965 101.16C309.398 103.946 308.578 112.224 308.578 112.224L297 116.041C297 116.041 297.531 106.499 298.11 103.068C298.785 98.9856 302.58 98.4139 305.965 101.16Z" fill="black"/>
<path d="M152.963 135.709C152.513 133.756 151.416 132.014 149.851 130.766C148.286 129.519 146.344 128.84 144.344 128.84H80.0237C77.6781 128.84 75.4286 129.773 73.77 131.434C72.1115 133.095 71.1797 135.348 71.1797 137.697V280.885C71.1797 283.235 72.1115 285.488 73.77 287.149C75.4286 288.81 77.6781 289.743 80.0237 289.743H284.24C286.585 289.743 288.835 288.81 290.493 287.149C292.152 285.488 293.084 283.235 293.084 280.885V160.607C293.084 158.257 292.152 156.004 290.493 154.343C288.835 152.682 286.585 151.749 284.24 151.749H173.087C168.415 151.75 163.882 150.164 160.226 147.25C156.571 144.337 154.01 140.268 152.963 135.709Z" fill="#00CED1"/>
<path opacity="0.6" d="M152.963 135.709C152.513 133.756 151.416 132.014 149.851 130.766C148.286 129.519 146.344 128.84 144.344 128.84H80.0237C77.6781 128.84 75.4286 129.773 73.77 131.434C72.1115 133.095 71.1797 135.348 71.1797 137.697V280.885C71.1797 283.235 72.1115 285.488 73.77 287.149C75.4286 288.81 77.6781 289.743 80.0237 289.743H284.24C286.585 289.743 288.835 288.81 290.493 287.149C292.152 285.488 293.084 283.235 293.084 280.885V160.607C293.084 158.257 292.152 156.004 290.493 154.343C288.835 152.682 286.585 151.749 284.24 151.749H173.087C168.415 151.75 163.882 150.164 160.226 147.25C156.571 144.337 154.01 140.268 152.963 135.709Z" fill="black"/>
<path opacity="0.22" d="M130.266 91.1191L135.998 109.712C136.73 112.079 138.37 114.057 140.557 115.214C142.744 116.37 145.3 116.61 147.664 115.88L166.22 110.139L130.266 91.1191Z" fill="#00CED1"/>
<path d="M130.244 91.1191L63.9139 111.645C62.743 112.005 61.6545 112.593 60.7106 113.375C59.7668 114.157 58.9862 115.118 58.4134 116.202C57.8407 117.287 57.487 118.474 57.3727 119.695C57.2584 120.916 57.3857 122.149 57.7472 123.321L95.6156 246.104C95.9771 247.276 96.5656 248.366 97.3475 249.31C98.1294 250.255 99.0895 251.036 100.173 251.608C101.256 252.181 102.442 252.535 103.661 252.648C104.881 252.762 106.111 252.634 107.282 252.272L192.176 226.005C193.346 225.644 194.434 225.055 195.377 224.273C196.32 223.491 197.1 222.53 197.672 221.445C198.244 220.361 198.597 219.174 198.71 217.953C198.824 216.732 198.696 215.501 198.335 214.329L166.175 110.139L130.244 91.1191Z" fill="#00CED1"/>
<path opacity="0.8" d="M130.244 91.1191L63.9139 111.645C62.743 112.005 61.6545 112.593 60.7106 113.375C59.7668 114.157 58.9862 115.118 58.4134 116.202C57.8407 117.287 57.487 118.474 57.3727 119.695C57.2584 120.916 57.3857 122.149 57.7472 123.321L95.6156 246.104C95.9771 247.276 96.5656 248.366 97.3475 249.31C98.1294 250.255 99.0895 251.036 100.173 251.608C101.256 252.181 102.442 252.535 103.661 252.648C104.881 252.762 106.111 252.634 107.282 252.272L192.176 226.005C193.346 225.644 194.434 225.055 195.377 224.273C196.32 223.491 197.1 222.53 197.672 221.445C198.244 220.361 198.597 219.174 198.71 217.953C198.824 216.732 198.696 215.501 198.335 214.329L166.175 110.139L130.244 91.1191Z" fill="white"/>
<g opacity="0.28">
<path d="M165.768 220.638L110.581 237.709C109.549 238.027 108.433 237.922 107.478 237.418C106.523 236.914 105.806 236.052 105.484 235.02C105.17 233.986 105.276 232.87 105.781 231.915C106.286 230.96 107.147 230.244 108.177 229.923L163.364 212.844C164.397 212.527 165.513 212.632 166.469 213.138C167.424 213.644 168.141 214.508 168.461 215.541C168.775 216.575 168.668 217.691 168.164 218.646C167.659 219.601 166.798 220.317 165.768 220.638Z" fill="#00CED1"/>
</g>
<g opacity="0.28">
<path d="M106.614 120.452L77.429 129.478C76.3969 129.794 75.2823 129.688 74.3277 129.184C73.373 128.681 72.6557 127.82 72.3316 126.789C72.0172 125.754 72.1238 124.637 72.6284 123.681C73.1329 122.724 73.9944 122.007 75.025 121.684L104.21 112.657C105.242 112.337 106.359 112.441 107.315 112.945C108.27 113.449 108.987 114.313 109.308 115.346C109.622 116.381 109.515 117.498 109.011 118.455C108.506 119.411 107.645 120.129 106.614 120.452Z" fill="#00CED1"/>
</g>
<g opacity="0.28">
<path d="M130.325 130.028L82.085 144.949C81.0551 145.259 79.9448 145.149 78.995 144.644C78.0452 144.139 77.3326 143.279 77.0118 142.251C76.695 141.219 76.7998 140.103 77.3031 139.147C77.8064 138.192 78.6673 137.475 79.6971 137.154L127.937 122.233C128.969 121.916 130.085 122.02 131.04 122.524C131.995 123.028 132.712 123.891 133.034 124.923C133.346 125.959 133.236 127.077 132.729 128.034C132.221 128.99 131.357 129.706 130.325 130.028Z" fill="#00CED1"/>
</g>
<g opacity="0.28">
<path d="M157.375 138.631L86.9763 160.372C85.9453 160.69 84.8308 160.585 83.8769 160.081C82.923 159.577 82.2075 158.714 81.887 157.683C81.5722 156.649 81.6778 155.533 82.1807 154.577C82.6836 153.621 83.5432 152.902 84.5724 152.578L154.971 130.836C156.002 130.521 157.115 130.627 158.068 131.131C159.022 131.635 159.738 132.496 160.06 133.526C160.377 134.559 160.272 135.677 159.769 136.633C159.266 137.59 158.405 138.308 157.375 138.631Z" fill="#00CED1"/>
</g>
<g opacity="0.28">
<path d="M162.027 154.095L121.103 166.762C120.071 167.076 118.957 166.969 118.003 166.464C117.049 165.959 116.334 165.096 116.014 164.064C115.699 163.032 115.805 161.916 116.308 160.962C116.811 160.007 117.67 159.29 118.699 158.967L159.623 146.301C160.656 145.988 161.77 146.096 162.725 146.601C163.679 147.106 164.396 147.967 164.72 148.998C165.034 150.032 164.927 151.148 164.423 152.103C163.918 153.058 163.057 153.774 162.027 154.095Z" fill="#00CED1"/>
</g>
<g opacity="0.28">
<path d="M102.367 172.567L91.6653 175.876C90.6333 176.194 89.5177 176.089 88.5625 175.585C87.6073 175.081 86.8902 174.219 86.568 173.187C86.2513 172.152 86.357 171.034 86.8618 170.077C87.3666 169.12 88.2295 168.403 89.2614 168.082L99.9626 164.772C100.995 164.457 102.109 164.562 103.064 165.066C104.019 165.57 104.736 166.431 105.06 167.462C105.372 168.496 105.265 169.613 104.76 170.568C104.256 171.524 103.396 172.242 102.367 172.567Z" fill="#00CED1"/>
</g>
<g opacity="0.28">
<path d="M166.931 169.563L96.5327 191.344C95.5007 191.659 94.3862 191.552 93.4327 191.047C92.4792 190.541 91.7641 189.678 91.4434 188.647C91.1267 187.614 91.2314 186.498 91.7348 185.543C92.2381 184.587 93.0989 183.871 94.1288 183.55L164.527 161.768C165.558 161.453 166.672 161.559 167.625 162.063C168.578 162.566 169.294 163.427 169.616 164.457C169.933 165.491 169.829 166.608 169.326 167.565C168.822 168.522 167.961 169.24 166.931 169.563Z" fill="#00CED1"/>
</g>
<g opacity="0.28">
<path d="M144.444 193.427L101.213 206.802C100.182 207.117 99.0681 207.012 98.1148 206.508C97.1615 206.004 96.4456 205.143 96.1233 204.113C95.8086 203.079 95.9141 201.963 96.417 201.007C96.9199 200.051 97.7795 199.332 98.8087 199.008L142.04 185.633C143.073 185.318 144.188 185.425 145.143 185.93C146.098 186.435 146.815 187.298 147.137 188.33C147.454 189.364 147.348 190.481 146.843 191.437C146.338 192.392 145.475 193.108 144.444 193.427Z" fill="#00CED1"/>
</g>
<g opacity="0.28">
<path d="M171.456 185.031L159.919 188.599C158.886 188.914 157.77 188.807 156.815 188.301C155.861 187.796 155.144 186.933 154.822 185.901C154.507 184.867 154.614 183.751 155.119 182.796C155.624 181.841 156.485 181.125 157.515 180.804L169.052 177.237C170.083 176.919 171.198 177.024 172.152 177.528C173.106 178.033 173.821 178.895 174.142 179.926C174.459 180.96 174.354 182.077 173.851 183.034C173.348 183.99 172.487 184.709 171.456 185.031Z" fill="#00CED1"/>
</g>
<g opacity="0.28">
<path d="M176.479 200.509L106.097 222.25C105.064 222.567 103.947 222.462 102.992 221.956C102.036 221.45 101.32 220.586 100.999 219.553C100.683 218.519 100.789 217.402 101.294 216.446C101.799 215.491 102.661 214.775 103.693 214.455L174.083 192.674C175.116 192.361 176.231 192.469 177.185 192.974C178.139 193.479 178.856 194.34 179.18 195.371C179.342 195.886 179.4 196.428 179.351 196.966C179.303 197.503 179.149 198.026 178.897 198.503C178.646 198.981 178.303 199.404 177.888 199.748C177.473 200.092 176.994 200.351 176.479 200.509Z" fill="#00CED1"/>
</g>
<path d="M177.955 44.942L199.003 91.9198C199.55 93.1461 199.589 94.5392 199.113 95.7946C198.637 97.05 197.684 98.0656 196.463 98.6194L107.171 138.761C105.946 139.31 104.555 139.351 103.301 138.874C102.046 138.397 101.033 137.441 100.481 136.216L79.4245 89.2383C78.8733 88.0114 78.8314 86.6154 79.3078 85.3575C79.7843 84.0996 80.7401 83.0828 81.9651 82.5307L171.257 42.3894C172.484 41.8423 173.877 41.8037 175.132 42.282C176.387 42.7603 177.402 43.7166 177.955 44.942Z" fill="#00CED1"/>
<path opacity="0.3" d="M177.955 44.942L199.003 91.9198C199.55 93.1461 199.589 94.5392 199.113 95.7946C198.637 97.05 197.684 98.0656 196.463 98.6194L107.171 138.761C105.946 139.31 104.555 139.351 103.301 138.874C102.046 138.397 101.033 137.441 100.481 136.216L79.4245 89.2383C78.8733 88.0114 78.8314 86.6154 79.3078 85.3575C79.7843 84.0996 80.7401 83.0828 81.9651 82.5307L171.257 42.3894C172.484 41.8423 173.877 41.8037 175.132 42.282C176.387 42.7603 177.402 43.7166 177.955 44.942Z" fill="black"/>
<path d="M163.736 42.6203L160.883 43.9023L161.212 44.6371L164.065 43.355L163.736 42.6203Z" fill="#00CED1"/>
<path d="M156.91 45.6976L148.012 49.6953L148.341 50.43L157.239 46.4323L156.91 45.6976Z" fill="#00CED1"/>
<path d="M79.3231 93.9749L78.5898 94.3047L81.0267 99.7404L81.76 99.4106L79.3231 93.9749Z" fill="#00CED1"/>
<path opacity="0.6" d="M174.957 42.2221L151.93 87.3961C149.794 91.5831 146.294 94.9147 142.011 96.84C137.728 98.7654 132.917 99.1693 128.373 97.985L79.3691 85.1897C79.8718 84.0121 80.7949 83.0647 81.958 82.5324L171.25 42.3912C172.42 41.8673 173.744 41.8069 174.957 42.2221Z" fill="#00CED1"/>
<path d="M206.574 100.037L137.285 104.321C136.061 104.394 134.863 104.708 133.76 105.245C132.657 105.782 131.671 106.531 130.858 107.451C130.045 108.37 129.42 109.441 129.021 110.602C128.621 111.763 128.454 112.992 128.529 114.217L136.433 242.476C136.506 243.703 136.821 244.903 137.359 246.008C137.896 247.112 138.646 248.1 139.566 248.914C140.485 249.728 141.556 250.352 142.717 250.751C143.877 251.149 145.105 251.315 146.33 251.237L235.011 245.754C236.234 245.68 237.43 245.365 238.531 244.827C239.632 244.29 240.616 243.54 241.427 242.62C242.239 241.701 242.861 240.63 243.258 239.47C243.655 238.309 243.82 237.082 243.742 235.857L237.069 127.013L206.574 100.037Z" fill="#00CED1"/>
<path opacity="0.8" d="M206.574 100.037L137.285 104.321C136.061 104.394 134.863 104.708 133.76 105.245C132.657 105.782 131.671 106.531 130.858 107.451C130.045 108.37 129.42 109.441 129.021 110.602C128.621 111.763 128.454 112.992 128.529 114.217L136.433 242.476C136.506 243.703 136.821 244.903 137.359 246.008C137.896 247.112 138.646 248.1 139.566 248.914C140.485 249.728 141.556 250.352 142.717 250.751C143.877 251.149 145.105 251.315 146.33 251.237L235.011 245.754C236.234 245.68 237.43 245.365 238.531 244.827C239.632 244.29 240.616 243.54 241.427 242.62C242.239 241.701 242.861 240.63 243.258 239.47C243.655 238.309 243.82 237.082 243.742 235.857L237.069 127.013L206.574 100.037Z" fill="white"/>
<g opacity="0.22">
<path d="M210.569 234.326L152.914 237.893C151.837 237.955 150.779 237.587 149.972 236.871C149.164 236.154 148.673 235.147 148.604 234.068C148.543 232.99 148.908 231.931 149.622 231.121C150.336 230.311 151.339 229.817 152.415 229.744L210.07 226.185C211.147 226.121 212.206 226.486 213.015 227.202C213.824 227.917 214.317 228.923 214.388 230.002C214.452 231.082 214.086 232.143 213.37 232.954C212.654 233.764 211.647 234.257 210.569 234.326Z" fill="#00CED1"/>
</g>
<g opacity="0.22">
<path d="M176.595 122.947L146.1 124.816C145.023 124.877 143.966 124.511 143.157 123.797C142.349 123.082 141.854 122.076 141.782 120.999C141.72 119.919 142.087 118.859 142.802 118.049C143.518 117.239 144.524 116.745 145.601 116.675L176.097 114.79C177.173 114.726 178.231 115.092 179.038 115.808C179.846 116.523 180.338 117.53 180.406 118.607C180.475 119.689 180.112 120.753 179.397 121.567C178.683 122.381 177.675 122.877 176.595 122.947Z" fill="#00CED1"/>
</g>
<g opacity="0.22">
<path d="M197.457 137.879L147.071 140.987C145.993 141.053 144.933 140.689 144.124 139.973C143.314 139.258 142.821 138.25 142.753 137.17C142.689 136.09 143.055 135.029 143.771 134.219C144.487 133.408 145.494 132.915 146.572 132.846L196.951 129.738C198.029 129.672 199.088 130.037 199.898 130.752C200.707 131.468 201.2 132.476 201.268 133.555C201.332 134.634 200.967 135.694 200.253 136.504C199.539 137.314 198.534 137.809 197.457 137.879Z" fill="#00CED1"/>
</g>
<g opacity="0.22">
<path d="M221.595 152.601L148.061 157.143C146.981 157.209 145.918 156.843 145.106 156.127C144.294 155.41 143.798 154.4 143.728 153.318C143.664 152.24 144.029 151.18 144.743 150.371C145.458 149.563 146.463 149.07 147.539 149.002L221.081 144.452C222.158 144.39 223.215 144.758 224.023 145.474C224.83 146.191 225.322 147.199 225.39 148.277C225.454 149.353 225.091 150.411 224.381 151.221C223.67 152.031 222.669 152.527 221.595 152.601Z" fill="#00CED1"/>
</g>
<g opacity="0.22">
<path d="M222.582 168.756L179.833 171.397C178.756 171.461 177.697 171.096 176.888 170.381C176.079 169.665 175.586 168.659 175.515 167.58C175.449 166.501 175.814 165.44 176.528 164.629C177.243 163.818 178.249 163.325 179.326 163.256L222.075 160.615C223.153 160.549 224.213 160.914 225.022 161.629C225.831 162.345 226.324 163.353 226.393 164.432C226.456 165.511 226.092 166.571 225.378 167.381C224.663 168.191 223.658 168.686 222.582 168.756Z" fill="#00CED1"/>
</g>
<g opacity="0.22">
<path d="M160.393 172.607L149.209 173.299C148.133 173.363 147.075 172.997 146.268 172.282C145.46 171.567 144.968 170.56 144.9 169.482C144.836 168.404 145.201 167.343 145.915 166.533C146.629 165.723 147.634 165.229 148.711 165.158L159.894 164.466C160.972 164.404 162.031 164.771 162.84 165.488C163.648 166.204 164.141 167.212 164.212 168.291C164.273 169.369 163.906 170.429 163.191 171.237C162.475 172.046 161.469 172.538 160.393 172.607Z" fill="#00CED1"/>
</g>
<g opacity="0.22">
<path d="M223.733 184.912L150.191 189.453C149.114 189.517 148.056 189.152 147.247 188.437C146.438 187.722 145.944 186.715 145.874 185.637C145.812 184.557 146.179 183.497 146.894 182.687C147.61 181.877 148.616 181.383 149.693 181.312L223.227 176.771C224.305 176.707 225.365 177.073 226.174 177.79C226.983 178.507 227.476 179.516 227.544 180.596C227.608 181.674 227.243 182.733 226.529 183.542C225.814 184.351 224.809 184.843 223.733 184.912Z" fill="#00CED1"/>
</g>
<g opacity="0.22">
<path d="M196.327 202.82L151.166 205.614C150.088 205.675 149.029 205.308 148.221 204.592C147.412 203.875 146.919 202.868 146.848 201.789C146.787 200.71 147.154 199.651 147.869 198.842C148.585 198.033 149.591 197.541 150.667 197.473L195.828 194.679C196.905 194.617 197.963 194.984 198.77 195.701C199.578 196.418 200.069 197.425 200.138 198.503C200.204 199.582 199.839 200.642 199.125 201.452C198.41 202.261 197.403 202.753 196.327 202.82Z" fill="#00CED1"/>
</g>
<g opacity="0.22">
<path d="M224.647 201.074L212.587 201.815C211.51 201.879 210.453 201.513 209.645 200.798C208.837 200.083 208.345 199.076 208.277 197.998C208.211 196.919 208.575 195.858 209.29 195.047C210.004 194.236 211.011 193.743 212.088 193.674L224.148 192.933C225.226 192.867 226.286 193.232 227.095 193.948C227.904 194.663 228.397 195.671 228.466 196.75C228.527 197.83 228.161 198.89 227.445 199.7C226.73 200.51 225.724 201.004 224.647 201.074Z" fill="#00CED1"/>
</g>
<g opacity="0.22">
<path d="M225.673 217.224L152.139 221.766C151.062 221.83 150.003 221.464 149.194 220.749C148.385 220.034 147.892 219.027 147.822 217.949C147.758 216.87 148.123 215.81 148.837 215C149.551 214.19 150.556 213.695 151.633 213.625L225.174 209.083C226.251 209.019 227.308 209.385 228.116 210.1C228.924 210.816 229.416 211.823 229.484 212.9C229.55 213.979 229.186 215.041 228.471 215.852C227.757 216.662 226.75 217.156 225.673 217.224Z" fill="#00CED1"/>
</g>
<path opacity="0.22" d="M206.516 100.037L207.714 119.46C207.788 120.684 208.103 121.882 208.64 122.985C209.177 124.087 209.926 125.073 210.844 125.886C211.761 126.699 212.83 127.323 213.988 127.722C215.147 128.121 216.372 128.288 217.595 128.212L237.011 127.013L206.516 100.037Z" fill="#00CED1"/>
<path opacity="0.5" d="M183.835 148.488C183.823 147.557 183.625 146.638 183.252 145.785C182.88 144.933 182.34 144.163 181.665 143.523C180.991 142.883 180.195 142.384 179.325 142.057C178.455 141.73 177.528 141.581 176.599 141.619H112.199C107.319 141.619 102.551 145.589 101.634 150.477L76.22 280.885C75.2712 285.773 78.4551 289.743 83.3354 289.743H287.551C292.432 289.743 297.159 285.781 298.116 280.885L319.076 173.386C320.025 168.49 316.841 164.528 311.961 164.528H200.84C191.192 164.528 184.165 157.877 183.835 148.488Z" fill="#00CED1"/>
</svg>
