<svg width="1440" height="480" viewBox="0 0 1440 480" fill="none" xmlns="http://www.w3.org/2000/svg">
<rect width="1440" height="480" fill="url(#paint0_linear_1232_859)" fill-opacity="0.6"/>
<rect width="1440" height="480" fill="url(#paint1_linear_1232_859)" fill-opacity="0.6"/>
<path d="M407 206.992V217.84H379.064V235.024H400.472V245.68H379.064V274H365.624V206.992H407ZM413.074 247.216C413.074 241.84 414.13 237.072 416.242 232.912C418.418 228.752 421.33 225.552 424.978 223.312C428.69 221.072 432.818 219.952 437.362 219.952C441.33 219.952 444.786 220.752 447.73 222.352C450.738 223.952 453.138 225.968 454.93 228.4V220.816H468.466V274H454.93V266.224C453.202 268.72 450.802 270.8 447.73 272.464C444.722 274.064 441.234 274.864 437.266 274.864C432.786 274.864 428.69 273.712 424.978 271.408C421.33 269.104 418.418 265.872 416.242 261.712C414.13 257.488 413.074 252.656 413.074 247.216ZM454.93 247.408C454.93 244.144 454.29 241.36 453.01 239.056C451.73 236.688 450.002 234.896 447.826 233.68C445.65 232.4 443.314 231.76 440.818 231.76C438.322 231.76 436.018 232.368 433.906 233.584C431.794 234.8 430.066 236.592 428.722 238.96C427.442 241.264 426.802 244.016 426.802 247.216C426.802 250.416 427.442 253.232 428.722 255.664C430.066 258.032 431.794 259.856 433.906 261.136C436.082 262.416 438.386 263.056 440.818 263.056C443.314 263.056 445.65 262.448 447.826 261.232C450.002 259.952 451.73 258.16 453.01 255.856C454.29 253.488 454.93 250.672 454.93 247.408ZM547.641 220.048C554.169 220.048 559.417 222.064 563.385 226.096C567.417 230.064 569.433 235.632 569.433 242.8V274H555.993V244.624C555.993 240.464 554.937 237.296 552.825 235.12C550.713 232.88 547.833 231.76 544.185 231.76C540.537 231.76 537.625 232.88 535.449 235.12C533.337 237.296 532.281 240.464 532.281 244.624V274H518.841V244.624C518.841 240.464 517.785 237.296 515.673 235.12C513.561 232.88 510.681 231.76 507.033 231.76C503.321 231.76 500.377 232.88 498.201 235.12C496.089 237.296 495.033 240.464 495.033 244.624V274H481.593V220.816H495.033V227.248C496.761 225.008 498.969 223.248 501.657 221.968C504.409 220.688 507.417 220.048 510.681 220.048C514.841 220.048 518.553 220.944 521.817 222.736C525.081 224.464 527.609 226.96 529.401 230.224C531.129 227.152 533.625 224.688 536.889 222.832C540.217 220.976 543.801 220.048 547.641 220.048ZM597.835 231.856V257.584C597.835 259.376 598.251 260.688 599.083 261.52C599.979 262.288 601.451 262.672 603.499 262.672H609.739V274H601.291C589.963 274 584.299 268.496 584.299 257.488V231.856H577.963V220.816H584.299V207.664H597.835V220.816H609.739V231.856H597.835ZM643.021 274.864C637.901 274.864 633.293 273.744 629.197 271.504C625.101 269.2 621.869 265.968 619.501 261.808C617.197 257.648 616.045 252.848 616.045 247.408C616.045 241.968 617.229 237.168 619.597 233.008C622.029 228.848 625.325 225.648 629.485 223.408C633.645 221.104 638.285 219.952 643.405 219.952C648.525 219.952 653.165 221.104 657.325 223.408C661.485 225.648 664.749 228.848 667.117 233.008C669.549 237.168 670.765 241.968 670.765 247.408C670.765 252.848 669.517 257.648 667.021 261.808C664.589 265.968 661.261 269.2 657.037 271.504C652.877 273.744 648.205 274.864 643.021 274.864ZM643.021 263.152C645.453 263.152 647.725 262.576 649.837 261.424C652.013 260.208 653.741 258.416 655.021 256.048C656.301 253.68 656.941 250.8 656.941 247.408C656.941 242.352 655.597 238.48 652.909 235.792C650.285 233.04 647.053 231.664 643.213 231.664C639.373 231.664 636.141 233.04 633.517 235.792C630.957 238.48 629.677 242.352 629.677 247.408C629.677 252.464 630.925 256.368 633.421 259.12C635.981 261.808 639.181 263.152 643.021 263.152ZM733.163 220.816C738.347 220.816 742.539 222.256 745.739 225.136C748.939 227.952 750.539 232.144 750.539 237.712C750.539 239.44 750.347 241.36 749.963 243.472L744.587 274H740.363L745.739 243.76C746.059 241.712 746.219 240.016 746.219 238.672C746.219 234.064 744.939 230.576 742.379 228.208C739.819 225.776 736.235 224.56 731.627 224.56C725.995 224.56 721.195 226.384 717.227 230.032C713.259 233.616 710.635 238.896 709.355 245.872V245.776L704.363 274H700.043L712.619 202.96H716.939L711.659 233.008C713.835 229.04 716.811 226.032 720.587 223.984C724.427 221.872 728.619 220.816 733.163 220.816ZM782.896 274.768C776.368 274.768 771.12 272.88 767.152 269.104C763.248 265.328 761.296 260.208 761.296 253.744C761.296 247.856 762.608 242.416 765.232 237.424C767.92 232.432 771.632 228.496 776.368 225.616C781.104 222.672 786.384 221.2 792.208 221.2C796.432 221.2 800.176 222.064 803.44 223.792C806.704 225.456 809.232 227.888 811.024 231.088C812.88 234.224 813.808 237.936 813.808 242.224C813.808 248.112 812.464 253.552 809.776 258.544C807.088 263.536 803.376 267.504 798.64 270.448C793.968 273.328 788.72 274.768 782.896 274.768ZM783.472 271.024C788.464 271.024 792.912 269.712 796.816 267.088C800.784 264.464 803.856 260.976 806.031 256.624C808.272 252.272 809.392 247.536 809.392 242.416C809.392 236.72 807.696 232.368 804.304 229.36C800.912 226.352 796.656 224.848 791.536 224.848C786.48 224.848 782 226.16 778.096 228.784C774.192 231.408 771.152 234.928 768.976 239.344C766.8 243.696 765.712 248.4 765.712 253.456C765.712 259.152 767.376 263.504 770.704 266.512C774.096 269.52 778.352 271.024 783.472 271.024ZM854.659 220.816C859.971 220.816 864.227 222.256 867.427 225.136C870.627 227.952 872.227 232.144 872.227 237.712C872.227 239.44 872.035 241.36 871.651 243.472L866.275 274H862.051L867.427 243.76C867.747 241.712 867.906 240.016 867.906 238.672C867.906 234.064 866.627 230.576 864.067 228.208C861.507 225.776 857.923 224.56 853.315 224.56C847.939 224.56 843.299 226.224 839.395 229.552C835.491 232.88 832.803 237.776 831.331 244.24L826.051 274H821.73L831.043 221.872H835.363L833.443 232.816C835.619 228.912 838.563 225.936 842.275 223.888C846.051 221.84 850.179 220.816 854.659 220.816ZM904.583 274.768C898.055 274.768 892.807 272.88 888.839 269.104C884.935 265.328 882.983 260.208 882.983 253.744C882.983 247.856 884.295 242.416 886.919 237.424C889.607 232.432 893.319 228.496 898.055 225.616C902.791 222.672 908.071 221.2 913.895 221.2C918.119 221.2 921.863 222.064 925.127 223.792C928.391 225.456 930.919 227.888 932.711 231.088C934.567 234.224 935.495 237.936 935.495 242.224C935.495 248.112 934.151 253.552 931.463 258.544C928.775 263.536 925.063 267.504 920.327 270.448C915.655 273.328 910.407 274.768 904.583 274.768ZM905.159 271.024C910.151 271.024 914.599 269.712 918.503 267.088C922.471 264.464 925.543 260.976 927.719 256.624C929.959 252.272 931.079 247.536 931.079 242.416C931.079 236.72 929.383 232.368 925.991 229.36C922.599 226.352 918.343 224.848 913.223 224.848C908.167 224.848 903.687 226.16 899.783 228.784C895.879 231.408 892.839 234.928 890.663 239.344C888.487 243.696 887.399 248.4 887.399 253.456C887.399 259.152 889.063 263.504 892.391 266.512C895.783 269.52 900.039 271.024 905.159 271.024ZM996.698 221.872L987.482 274H983.162L985.178 262.768C983.002 266.672 980.026 269.68 976.25 271.792C972.474 273.84 968.378 274.864 963.962 274.864C958.65 274.864 954.362 273.456 951.098 270.64C947.898 267.76 946.298 263.504 946.298 257.872C946.298 255.76 946.458 253.872 946.778 252.208L952.25 221.872H956.474L951.098 251.92C950.778 253.968 950.618 255.632 950.618 256.912C950.618 261.584 951.898 265.136 954.458 267.568C957.018 269.936 960.602 271.12 965.21 271.12C970.842 271.12 975.642 269.328 979.61 265.744C983.642 262.096 986.234 256.784 987.386 249.808V250.096L992.378 221.872H996.698ZM1014.85 233.104C1016.89 229.136 1019.71 226.096 1023.29 223.984C1026.94 221.872 1031.26 220.816 1036.25 220.816L1035.39 225.328H1034.05C1028.93 225.328 1024.41 226.8 1020.51 229.744C1016.61 232.624 1014.08 237.36 1012.93 243.952L1007.55 274H1003.23L1012.54 221.872H1016.86L1014.85 233.104ZM1053.21 274.768C1047.83 274.768 1043.55 273.488 1040.35 270.928C1037.21 268.368 1035.83 264.72 1036.22 259.984H1040.54C1040.22 263.376 1041.18 266.096 1043.42 268.144C1045.72 270.128 1049.08 271.12 1053.5 271.12C1058.04 271.12 1061.66 270.128 1064.35 268.144C1067.03 266.096 1068.38 263.472 1068.38 260.272C1068.38 258.352 1067.83 256.752 1066.75 255.472C1065.66 254.192 1064.31 253.168 1062.71 252.4C1061.11 251.632 1058.87 250.736 1055.99 249.712C1052.79 248.624 1050.17 247.568 1048.12 246.544C1046.14 245.52 1044.44 244.112 1043.03 242.32C1041.69 240.464 1041.02 238.128 1041.02 235.312C1041.02 232.56 1041.82 230.128 1043.42 228.016C1045.02 225.84 1047.23 224.176 1050.04 223.024C1052.86 221.808 1055.99 221.2 1059.45 221.2C1064.25 221.2 1068.25 222.448 1071.45 224.944C1074.65 227.376 1076.25 230.608 1076.25 234.64C1076.25 235.472 1076.22 236.112 1076.15 236.56H1071.93C1071.99 236.24 1072.03 235.728 1072.03 235.024C1072.03 231.952 1070.78 229.488 1068.28 227.632C1065.85 225.712 1062.78 224.752 1059.07 224.752C1055.1 224.752 1051.8 225.712 1049.18 227.632C1046.62 229.488 1045.34 232.016 1045.34 235.216C1045.34 237.328 1045.91 239.088 1047.07 240.496C1048.22 241.84 1049.63 242.928 1051.29 243.76C1053.02 244.528 1055.32 245.424 1058.2 246.448C1061.4 247.536 1063.93 248.56 1065.79 249.52C1067.71 250.48 1069.34 251.824 1070.68 253.552C1072.03 255.28 1072.7 257.488 1072.7 260.176C1072.7 264.656 1070.87 268.208 1067.23 270.832C1063.64 273.456 1058.97 274.768 1053.21 274.768Z" fill="white"/>
<defs>
<linearGradient id="paint0_linear_1232_859" x1="0" y1="0" x2="1473.5" y2="502.5" gradientUnits="userSpaceOnUse">
<stop stop-color="#00CED1"/>
<stop offset="1" stop-color="#014546"/>
</linearGradient>
<linearGradient id="paint1_linear_1232_859" x1="720" y1="0" x2="720" y2="480" gradientUnits="userSpaceOnUse">
<stop/>
<stop offset="1" stop-opacity="0"/>
</linearGradient>
</defs>
</svg>
