<svg width="100" height="100" viewBox="0 0 100 100" fill="none" xmlns="http://www.w3.org/2000/svg">
<path d="M50 50L68.75 31.25" stroke="white" stroke-width="5" stroke-miterlimit="10" stroke-linecap="round" stroke-linejoin="round"/>
<path d="M93.75 18.75H81.25V6.25L68.75 18.75V31.25H81.25L93.75 18.75Z" stroke="white" stroke-width="5" stroke-miterlimit="10" stroke-linecap="round" stroke-linejoin="round"/>
<path d="M50 68.75C60.3553 68.75 68.75 60.3553 68.75 50C68.75 39.6447 60.3553 31.25 50 31.25C39.6447 31.25 31.25 39.6447 31.25 50C31.25 60.3553 39.6447 68.75 50 68.75Z" stroke="white" stroke-width="5" stroke-miterlimit="10" stroke-linecap="round" stroke-linejoin="round"/>
<path d="M84.375 28.125C88.4375 34.375 90.625 41.875 90.625 50C90.625 72.5 72.5 90.625 50 90.625C27.5 90.625 9.375 72.5 9.375 50C9.375 27.5 27.5 9.375 50 9.375C58.125 9.375 65.625 11.5625 71.875 15.625" stroke="white" stroke-width="5" stroke-miterlimit="10" stroke-linecap="round" stroke-linejoin="round"/>
</svg>
