<svg width="198" height="153" viewBox="0 0 198 153" fill="none" xmlns="http://www.w3.org/2000/svg">
<path d="M66.5088 76.9998L109.333 34.1759L120.123 45.2248L88.3483 76.9998L120.123 108.775L109.333 119.824L66.5088 76.9998ZM0.83267 76.9817C0.832669 90.5597 3.40911 103.322 8.562 115.269C13.7149 127.216 20.708 137.608 29.5413 146.445C38.3745 155.282 48.7621 162.278 60.704 167.435C72.6459 172.589 85.405 175.166 98.9813 175.166C112.559 175.167 125.322 172.59 137.269 167.437C149.216 162.284 159.608 155.291 168.445 146.458C177.281 137.625 184.278 127.237 189.434 115.295C194.589 103.353 197.166 90.5942 197.166 77.0179C197.166 63.4399 194.59 50.6774 189.437 38.7303C184.284 26.7833 177.291 16.3914 168.457 7.55465C159.624 -1.28207 149.237 -8.2786 137.295 -13.4349C125.353 -18.5895 112.594 -21.1668 99.0174 -21.1669C85.4394 -21.1669 72.6769 -18.5904 60.7298 -13.4375C48.7828 -8.28463 38.3909 -1.29154 29.5542 7.54173C20.7175 16.375 13.7209 26.7626 8.56459 38.7045C3.40998 50.6464 0.832671 63.4055 0.83267 76.9817ZM16.3327 76.9998C16.3327 53.922 24.341 34.3748 40.3577 18.3582C56.3743 2.34148 75.9216 -5.66685 98.9993 -5.66685C122.077 -5.66685 141.624 2.34149 157.641 18.3582C173.658 34.3748 181.666 53.922 181.666 76.9998C181.666 100.078 173.658 119.625 157.641 135.641C141.624 151.658 122.077 159.666 98.9993 159.666C75.9216 159.666 56.3743 151.658 40.3577 135.641C24.341 119.625 16.3327 100.078 16.3327 76.9998Z" fill="black" fill-opacity="0.06"/>
</svg>
