<svg width="65" height="65" viewBox="0 0 65 65" fill="none" xmlns="http://www.w3.org/2000/svg">
<path d="M29.7145 31.4574L47.886 13.2594C48.3063 12.8391 48.782 12.629 49.3133 12.629C49.8446 12.629 50.3202 12.8391 50.7399 13.2594C51.1602 13.6796 51.3703 14.1552 51.3703 14.686C51.3703 15.2173 51.1602 15.693 50.7399 16.1133L32.6097 34.2849L29.7145 31.4574ZM36.2091 37.9255L52.4435 21.6498C52.8637 21.2296 53.3463 21.0194 53.8911 21.0194C54.4364 21.0194 54.9191 21.2296 55.3394 21.6498C55.7592 22.07 55.9691 22.5526 55.9691 23.0974C55.9691 23.6427 55.7592 24.1254 55.3394 24.5457L39.0785 40.7801L36.2091 37.9255ZM14.8599 50.0873C10.9956 46.2225 9.0677 41.5836 9.07628 36.1705C9.08485 30.7575 11.0301 26.11 14.9121 22.228L22.8549 14.2852L26.1984 17.655C26.6015 18.0576 26.9244 18.4892 27.1673 18.9496C27.4106 19.4096 27.6103 19.8982 27.7665 20.4155L37.6831 10.4569C38.1033 10.0371 38.5858 9.82724 39.1307 9.82724C39.6759 9.82724 40.1587 10.0371 40.579 10.4569C40.9987 10.8772 41.2086 11.3599 41.2086 11.9052C41.2086 12.45 40.9987 12.9326 40.579 13.3528L28.839 25.0928L23.8394 30.0768L25.1516 31.3897C27.0542 33.2923 27.9777 35.5752 27.9222 38.2384C27.8667 40.9016 26.8737 43.1984 24.9431 45.129L24.6831 45.389L21.8129 42.5351L22.0478 42.2744C23.1727 41.1496 23.7699 39.8112 23.8394 38.2593C23.9089 36.707 23.381 35.3684 22.2557 34.2436L19.8026 31.8318C19.3133 31.3425 19.0687 30.7602 19.0687 30.0849C19.0687 29.4092 19.3133 28.8267 19.8026 28.3374L23.2456 24.9621C23.8739 24.3338 24.1881 23.5777 24.1881 22.6939C24.1881 21.8105 23.8739 21.0544 23.2456 20.4256L22.8549 20.035L17.766 25.0975C14.6794 28.1846 13.123 31.8738 13.0968 36.1651C13.0711 40.4569 14.6015 44.1464 17.6881 47.2334C20.7747 50.32 24.484 51.8633 28.816 51.8633C33.1475 51.8633 36.8566 50.32 39.9432 47.2334L55.2398 31.8948C55.6601 31.4745 56.1428 31.2644 56.6881 31.2644C57.2334 31.2644 57.7159 31.4745 58.1357 31.8948C58.556 32.315 58.7661 32.7975 58.7661 33.3424C58.7661 33.8876 58.556 34.3704 58.1357 34.7906L42.7714 50.0873C38.8894 53.9693 34.2376 55.9102 28.816 55.9102C23.3939 55.9102 18.7419 53.9693 14.8599 50.0873ZM45.0524 60.6654L45.0267 56.5609C48.214 56.5609 50.9336 55.4352 53.1856 53.1836C55.4371 50.9316 56.5629 48.212 56.5629 45.0248L60.6674 45.0505C60.6674 49.3734 59.1457 53.0568 56.1025 56.1005C53.0587 59.1438 49.3754 60.6654 45.0524 60.6654ZM4.33398 19.9469C4.33398 15.624 5.85562 11.9406 8.89888 8.89693C11.9426 5.85366 15.6259 4.33203 19.9489 4.33203L19.9746 8.43651C16.7874 8.43651 14.0677 9.56228 11.8158 11.8138C9.56423 14.0658 8.43847 16.7854 8.43847 19.9727L4.33398 19.9469Z" fill="black" fill-opacity="0.15"/>
</svg>
