<svg width="129" height="23" viewBox="0 0 129 23" fill="none" xmlns="http://www.w3.org/2000/svg">
<path d="M34.4453 4.76345C35.5691 3.22066 38.0389 2.44926 41.8504 2.44926L47.7737 2.42383V5.63799H41.515C39.8831 5.67189 38.6857 6.02369 37.9214 6.69195C37.1572 7.36021 36.7325 8.51731 36.6462 10.1632L47.7723 10.1378V13.3251H36.6462V20.8837H32.7568V12.3997C32.7568 8.85215 33.3187 6.30625 34.4439 4.76345H34.4453Z" fill="white"/>
<path d="M61.1138 2.42383L68.9944 20.8837H64.6677L62.9679 16.487H54.9329L53.2841 20.8837H49.1895L56.9923 2.42383H61.1123H61.1138ZM56.194 13.1966H61.7054L58.8987 6.09998L56.194 13.1966Z" fill="white"/>
<path d="M76.1258 2.42383L80.8389 16.5901L85.552 2.42383H91.2431V20.8837H87.4316L87.7401 6.51252L83.0015 20.8837H78.8815L73.9886 6.35852L74.375 20.8837H70.4092V2.42383H76.1272H76.1258Z" fill="white"/>
<path d="M92.6606 5.63799V2.42383H108.629V5.63799H102.627V20.8583H98.6093V5.63799H92.6592H92.6606Z" fill="white"/>
<path d="M110.585 7.5066C111.03 6.15312 111.687 5.05112 112.555 4.20343C113.421 3.35574 114.559 2.75105 115.967 2.39079C116.482 2.2707 117.015 2.17604 117.564 2.10822C118.113 2.04041 118.662 2.00509 119.213 2.00509C119.796 1.98813 120.389 2.01356 120.99 2.08138C121.592 2.15061 122.166 2.26081 122.716 2.41622C124.088 2.75953 125.214 3.35856 126.09 4.21614C126.966 5.07372 127.61 6.17855 128.022 7.53203C128.193 8.14943 128.326 8.80074 128.421 9.48595C128.514 10.1712 128.562 10.8578 128.562 11.543C128.562 12.2805 128.52 12.9996 128.434 13.7032C128.347 14.4068 128.21 15.0751 128.022 15.708C127.61 17.0968 126.957 18.2143 126.064 19.0634C125.171 19.9111 124.021 20.4989 122.612 20.8238C122.063 20.9609 121.496 21.0597 120.912 21.1191C120.328 21.1784 119.736 21.2095 119.135 21.2095C118.603 21.2095 118.07 21.1756 117.538 21.1064C117.006 21.0371 116.482 20.9439 115.967 20.8238C114.576 20.4989 113.435 19.9111 112.542 19.0634C111.649 18.2143 110.996 17.0968 110.585 15.708C110.413 15.1076 110.279 14.4577 110.185 13.7541C110.091 13.0519 110.044 12.3398 110.044 11.6207C110.044 10.9016 110.086 10.1853 110.173 9.47324C110.259 8.76259 110.396 8.11552 110.585 7.53203V7.5066ZM114.603 8.81769C114.482 9.27968 114.396 9.74732 114.345 10.2192C114.294 10.6911 114.267 11.1573 114.267 11.6207C114.267 12.0841 114.297 12.5758 114.358 13.0477C114.417 13.5195 114.499 13.9773 114.603 14.4237C114.791 15.2121 115.105 15.8973 115.543 16.4808C115.98 17.0643 116.594 17.4924 117.384 17.7665C117.676 17.8696 117.985 17.9459 118.311 17.9982C118.637 18.049 118.963 18.0759 119.289 18.0759C119.615 18.0759 119.941 18.0504 120.268 17.9982C120.594 17.9473 120.904 17.8696 121.195 17.7665C121.985 17.4924 122.604 17.0643 123.05 16.4808C123.495 15.8987 123.805 15.2121 123.977 14.4237C124.08 13.9787 124.161 13.5195 124.221 13.0477C124.281 12.5758 124.312 12.1011 124.312 11.6207C124.312 11.1404 124.282 10.6911 124.221 10.2192C124.161 9.74732 124.08 9.28957 123.977 8.84312C123.805 8.05477 123.495 7.36531 123.05 6.77334C122.602 6.18137 121.985 5.75753 121.195 5.5004C120.904 5.39726 120.594 5.32097 120.268 5.26869C119.941 5.21783 119.616 5.19099 119.289 5.19099C118.962 5.19099 118.637 5.21642 118.311 5.26869C117.984 5.31955 117.676 5.39726 117.384 5.5004C116.594 5.77448 115.984 6.20398 115.555 6.78606C115.125 7.36955 114.808 8.05477 114.603 8.84312V8.81769Z" fill="white"/>
<path fill-rule="evenodd" clip-rule="evenodd" d="M14.6636 11.9639V14.3261C14.6636 15.7525 13.4767 16.9194 12.0258 16.9194V13.3664L12.0254 10.5027C12.0254 10.2248 12.2566 9.88086 12.5394 9.73837L22.2047 4.8676C22.4874 4.7251 22.7187 4.83597 22.7187 5.11383V7.68094L14.6636 11.9639L14.6636 11.9639Z" fill="white"/>
<path fill-rule="evenodd" clip-rule="evenodd" d="M12.0258 8.63573L12.0254 5.772C12.0254 5.49407 12.2566 5.15016 12.5394 5.00765L22.2047 0.136885C22.4874 -0.00562028 22.7187 0.10529 22.7187 0.383131V3.25196L12.0258 8.63572V8.63573Z" fill="white"/>
<path fill-rule="evenodd" clip-rule="evenodd" d="M19.2679 15.3637C12.4924 19.4 11.8911 17.7264 12.0679 22.626L22.7175 16.9755L22.7567 10.032L19.2782 11.8008V15.3685L19.2679 15.3637H19.2679Z" fill="white"/>
<path fill-rule="evenodd" clip-rule="evenodd" d="M3.61969 15.3567C10.3952 19.393 10.9964 17.7193 10.8197 22.619L0.17 16.9684L0.130859 10.0249L3.60936 11.7938V15.3615L3.61967 15.3567H3.61969Z" fill="white"/>
<path fill-rule="evenodd" clip-rule="evenodd" d="M10.7598 16.895L10.7663 5.58178C10.7663 5.58178 10.6905 4.91627 9.97851 4.77854L0.779262 0.046583C0.779262 0.046583 0.463044 -0.193398 0.158203 0.416024L0.160598 6.45041C0.160598 6.45041 0.333524 8.46277 2.67884 9.05943L2.68912 5.59063C2.68912 5.59063 2.96266 4.29766 4.03392 5.31665L4.03745 9.85005C4.03745 9.85005 4.26203 12.2049 6.74481 12.5641L6.71877 6.53578C6.71877 6.53578 7.49567 6.6232 8.17606 8.3131L8.20288 14.2063C8.20288 14.2063 8.60935 16.6534 10.7598 16.895H10.7598Z" fill="white"/>
</svg>
