<svg width="350" height="350" viewBox="0 0 350 350" fill="none" xmlns="http://www.w3.org/2000/svg">
<path fill-rule="evenodd" clip-rule="evenodd" d="M224.807 185.067V221.608C224.807 243.672 206.446 261.724 184.003 261.724V206.763L183.996 162.465C183.996 158.165 187.573 152.845 191.947 150.641L341.458 75.2959C345.832 73.0915 349.409 74.8066 349.409 79.1048V118.815L224.806 185.067L224.807 185.067Z" fill="#1AA6B3"/>
<path fill-rule="evenodd" clip-rule="evenodd" d="M184.003 133.586L183.996 89.2869C183.996 84.9876 187.573 79.6676 191.947 77.4633L341.458 2.11807C345.832 -0.0863216 349.409 1.62933 349.409 5.92722V50.3047L184.003 133.585V133.586Z" fill="#1AA6B3"/>
<path fill-rule="evenodd" clip-rule="evenodd" d="M296.034 237.659C191.225 300.096 181.925 274.206 184.659 349.998L349.397 262.591L350.002 155.183L296.194 182.545V237.733L296.035 237.659H296.034Z" fill="#1AA6B3"/>
<path fill-rule="evenodd" clip-rule="evenodd" d="M53.9682 237.549C158.777 299.986 168.078 274.097 165.344 349.889L0.605457 262.482L0 155.073L53.8084 182.435V237.624L53.968 237.549H53.9682Z" fill="#1AA6B3"/>
<path fill-rule="evenodd" clip-rule="evenodd" d="M164.413 261.346L164.514 86.3438C164.514 86.3438 163.34 76.0491 152.327 73.9186L10.025 0.720586C10.025 0.720586 5.1335 -2.99164 0.417969 6.43541L0.455009 99.7804C0.455009 99.7804 3.12999 130.909 39.4094 140.139L39.5684 86.4807C39.5684 86.4807 43.7996 66.4799 60.3708 82.2425L60.4254 152.369C60.4254 152.369 63.8994 188.796 102.305 194.352L101.902 101.101C101.902 101.101 113.92 102.453 124.445 128.594L124.86 219.755C124.86 219.755 131.148 257.609 164.413 261.346H164.413Z" fill="#1AA6B3"/>
</svg>
