<svg width="24" height="24" viewBox="0 0 24 24" fill="none" xmlns="http://www.w3.org/2000/svg">
<g clip-path="url(#clip0_4596_1526)">
<path d="M18.3744 23.4482L5.64716 23.4602C2.84716 23.4628 0.554337 21.1744 0.551156 18.3744L0.539065 5.64716C0.536519 2.84716 2.82488 0.554337 5.62488 0.551156L18.3522 0.539065C21.1522 0.536519 23.445 2.82488 23.4482 5.62488L23.4602 18.3522C23.4634 21.1528 21.1744 23.4456 18.3744 23.4482Z" fill="url(#paint0_radial_4596_1526)"/>
<path d="M18.3744 23.4482L5.64716 23.4602C2.84716 23.4628 0.554337 21.1744 0.551156 18.3744L0.539065 5.64716C0.536519 2.84716 2.82488 0.554337 5.62488 0.551156L18.3522 0.539065C21.1522 0.536519 23.445 2.82488 23.4482 5.62488L23.4602 18.3522C23.4634 21.1528 21.1744 23.4456 18.3744 23.4482Z" fill="url(#paint1_radial_4596_1526)"/>
<path d="M11.9995 16.454C9.54374 16.454 7.54492 14.4558 7.54492 11.9995C7.54492 9.5431 9.54374 7.54492 11.9995 7.54492C14.4552 7.54492 16.454 9.5431 16.454 11.9995C16.454 14.4558 14.4552 16.454 11.9995 16.454ZM11.9995 8.81765C10.245 8.81765 8.81765 10.245 8.81765 11.9995C8.81765 13.7539 10.245 15.1813 11.9995 15.1813C13.7539 15.1813 15.1813 13.7539 15.1813 11.9995C15.1813 10.245 13.7539 8.81765 11.9995 8.81765Z" fill="white"/>
<path d="M16.7729 8.18253C17.3001 8.18253 17.7275 7.75516 17.7275 7.22798C17.7275 6.7008 17.3001 6.27344 16.7729 6.27344C16.2457 6.27344 15.8184 6.7008 15.8184 7.22798C15.8184 7.75516 16.2457 8.18253 16.7729 8.18253Z" fill="white"/>
<path d="M15.8175 20.272H8.18111C5.72538 20.272 3.72656 18.2738 3.72656 15.8175V8.18111C3.72656 5.72474 5.72538 3.72656 8.18111 3.72656H15.8175C18.2732 3.72656 20.272 5.72474 20.272 8.18111V15.8175C20.272 18.2738 18.2732 20.272 15.8175 20.272ZM8.18111 4.99929C6.42665 4.99929 4.99929 6.42665 4.99929 8.18111V15.8175C4.99929 17.5719 6.42665 18.9993 8.18111 18.9993H15.8175C17.5719 18.9993 18.9993 17.5719 18.9993 15.8175V8.18111C18.9993 6.42665 17.5719 4.99929 15.8175 4.99929H8.18111Z" fill="white"/>
</g>
<defs>
<radialGradient id="paint0_radial_4596_1526" cx="0" cy="0" r="1" gradientUnits="userSpaceOnUse" gradientTransform="translate(9.05997 23.4768) scale(28.5721 28.5721)">
<stop stop-color="#FFDD55"/>
<stop offset="0.328" stop-color="#FF543F"/>
<stop offset="0.348" stop-color="#FC5245"/>
<stop offset="0.504" stop-color="#E64771"/>
<stop offset="0.643" stop-color="#D53E91"/>
<stop offset="0.761" stop-color="#CC39A4"/>
<stop offset="0.841" stop-color="#C837AB"/>
</radialGradient>
<radialGradient id="paint1_radial_4596_1526" cx="0" cy="0" r="1" gradientUnits="userSpaceOnUse" gradientTransform="translate(4.22743 0.252893) scale(18.9719 12.641)">
<stop stop-color="#4168C9"/>
<stop offset="0.999" stop-color="#4168C9" stop-opacity="0"/>
</radialGradient>
<clipPath id="clip0_4596_1526">
<rect width="24" height="24" fill="white"/>
</clipPath>
</defs>
</svg>
