<svg width="24" height="24" viewBox="0 0 24 24" fill="none" xmlns="http://www.w3.org/2000/svg">
<path d="M1.69727 22.3942L3.14788 17.0985C2.25296 15.5488 1.78234 13.7901 1.78288 11.989C1.78557 6.35399 6.37111 1.76953 12.0067 1.76953C14.7415 1.77061 17.3078 2.83515 19.2382 4.76661C21.168 6.69861 22.231 9.26599 22.2299 11.9971C22.2277 17.6321 17.6411 22.2171 12.0067 22.2171H12.0023C10.2917 22.2165 8.61003 21.7874 7.11688 20.9727L1.69727 22.3942Z" fill="white"/>
<path d="M1.69868 22.6632C1.62761 22.6632 1.55868 22.6352 1.50753 22.5835C1.44022 22.5151 1.41384 22.4155 1.43914 22.3234L2.86014 17.1348C1.97922 15.57 1.51453 13.7931 1.51561 11.9892C1.51776 6.20508 6.22445 1.5 12.0081 1.5C14.8135 1.50108 17.4492 2.59362 19.4302 4.57623C21.4112 6.55939 22.5016 9.19462 22.5005 11.9968C22.4984 17.7804 17.7911 22.486 12.0081 22.486C10.2909 22.4855 8.59207 22.0617 7.08437 21.2599L1.76707 22.654C1.74445 22.6605 1.72184 22.6632 1.69868 22.6632Z" fill="white"/>
<path d="M12.0063 1.76893C14.7411 1.77001 17.3074 2.83455 19.2378 4.76601C21.1677 6.69801 22.2306 9.26539 22.2295 11.9965C22.2273 17.6315 17.6407 22.2165 12.0063 22.2165H12.002C10.2913 22.2159 8.60965 21.7868 7.1165 20.9721L1.69689 22.3936L3.1475 17.0979C2.25258 15.5482 1.78196 13.7895 1.7825 11.9884C1.78519 6.35339 6.37073 1.76893 12.0063 1.76893ZM12.0063 1.23047C6.07458 1.23047 1.24673 6.05616 1.24404 11.9884C1.2435 13.8014 1.70119 15.588 2.56919 17.1695L1.17727 22.252C1.12666 22.4378 1.17835 22.6359 1.31404 22.7727C1.41635 22.8761 1.55473 22.9326 1.69689 22.9326C1.74266 22.9326 1.78842 22.9267 1.83366 22.9149L7.04973 21.5472C8.5725 22.3376 10.2794 22.7549 12.002 22.7555C17.938 22.7555 22.7658 17.9292 22.7685 11.997C22.7696 9.12216 21.6512 6.41908 19.6196 4.38585C17.5869 2.35208 14.8833 1.23155 12.0063 1.23047Z" fill="#CFD8DC"/>
<path d="M18.0181 5.98702C16.4135 4.38132 14.2806 3.49663 12.0105 3.49609C7.32369 3.49609 3.51192 7.30625 3.50977 11.9898C3.50923 13.5949 3.9583 15.1576 4.80907 16.5107L5.01154 16.8322L4.15269 19.9666L7.36892 19.1233L7.67961 19.3075C8.98377 20.0818 10.4796 20.491 12.0045 20.4916H12.0078C16.6913 20.4916 20.5031 16.6809 20.5047 11.9968C20.5052 9.72717 19.6227 7.59271 18.0181 5.98702Z" fill="#40C351"/>
<path fill-rule="evenodd" clip-rule="evenodd" d="M9.45258 7.717C9.26142 7.29162 9.06004 7.283 8.8775 7.27547C8.72835 7.269 8.55819 7.26954 8.38804 7.26954C8.21788 7.26954 7.94111 7.33362 7.70688 7.58939C7.47265 7.84516 6.8125 8.46277 6.8125 9.71954C6.8125 10.9763 7.72788 12.1911 7.8555 12.3612C7.98312 12.5314 9.62273 15.193 12.2192 16.2172C14.3768 17.0679 14.8162 16.8989 15.2847 16.8563C15.7531 16.8138 16.7961 16.2387 17.0088 15.6421C17.2215 15.0455 17.2215 14.5345 17.158 14.4278C17.0939 14.3212 16.9237 14.2577 16.6685 14.1295C16.4133 14.0014 15.157 13.3838 14.9228 13.2987C14.6886 13.2136 14.5184 13.1711 14.3477 13.4269C14.1776 13.6821 13.6881 14.2577 13.539 14.4278C13.3898 14.5985 13.2407 14.6201 12.9854 14.4919C12.7302 14.3638 11.9074 14.0945 10.9312 13.2244C10.172 12.5475 9.65935 11.7113 9.51019 11.4555C9.36104 11.2003 9.49404 11.0619 9.62219 10.9343C9.73688 10.8196 9.87742 10.636 10.0056 10.4868C10.1332 10.3377 10.1757 10.2311 10.2608 10.0609C10.3459 9.89024 10.3033 9.74108 10.2393 9.61347C10.1763 9.48531 9.67981 8.22208 9.45258 7.717Z" fill="white"/>
</svg>
